<svg width="273" height="886" viewBox="0 0 273 886" fill="none" xmlns="http://www.w3.org/2000/svg">
<g clip-path="url(#clip0_460_7734)">
<rect width="273" height="886" fill="white"/>
<path d="M48.5253 166.076V214.597H0.00418091V166.076H48.5253Z" fill="#00CA8B"/>
<path d="M104.048 166.076V214.597H55.5266V166.076H104.048Z" fill="#00CA8B"/>
<path d="M24.0126 190.588V214.597H0.00418663V190.588H24.0126Z" fill="#377E8D"/>
<path d="M24.0126 166.076V190.588H0.00419044V166.076H24.0126Z" fill="#4CA495"/>
<path d="M55.5266 214.597V177.078L93.0416 214.651L55.5266 214.597Z" fill="#4CA495"/>
<path d="M64.1948 166.067L104.048 205.758V166.076L64.1948 166.067Z" fill="#4CA495"/>
<path d="M158.574 166.076V214.597H110.053V166.076H158.574Z" fill="#4CA495"/>
<path d="M104.048 110.549V159.07H55.5266V110.549H104.048Z" fill="#00CA8B"/>
<path d="M215.097 110.549V159.07H166.576V110.549H215.097Z" fill="#00CA8B"/>
<path d="M215.097 110.549V124.556H166.576V110.549H215.097Z" fill="#377E8D"/>
<path d="M215.093 145.064V159.07H166.571V145.064H215.093Z" fill="#377E8D"/>
<path d="M224.603 -0.495758L273.124 -0.495758V48.0254L224.603 48.0254V-0.495758Z" fill="#4CA495"/>
<path d="M224.603 -0.495758L238.609 -0.495758V48.0254H224.603V-0.495758Z" fill="#377E8D"/>
<path d="M259.113 -0.495758L273.12 -0.495758V48.0254H259.113V-0.495758Z" fill="#377E8D"/>
<path d="M272.619 110.553V159.074H224.098V110.553H272.619Z" fill="#4CA495"/>
<path d="M272.624 127.556V159.07H224.102V127.556H272.624Z" fill="#2EE8A2"/>
<path d="M159.574 55.0266V103.548H111.053V55.0266H159.574Z" fill="#4CA495"/>
<path d="M159.57 74.0342V84.1402H111.049V74.0342H159.57Z" fill="#2EE8A2"/>
<path d="M159.57 55.0266V65.1326H111.049V55.0266H159.57Z" fill="#2EE8A2"/>
<path d="M159.574 93.4418V103.548H111.053V93.4418H159.574Z" fill="#2EE8A2"/>
<path d="M134.061 167.076C146.769 167.076 157.07 177.377 157.07 190.084C157.07 202.791 146.769 213.092 134.061 213.092C121.354 213.092 111.053 202.791 111.053 190.084C111.053 177.377 121.354 167.076 134.061 167.076Z" fill="#2EE8A2"/>
<path d="M134.061 179.257C140.041 179.257 144.888 184.104 144.888 190.084C144.888 196.064 140.041 200.911 134.061 200.911C128.082 200.911 123.234 196.064 123.234 190.084C123.234 184.104 128.082 179.257 134.061 179.257Z" fill="#377E8D"/>
<path d="M268.39 212.605C269.477 212.588 270.552 212.513 271.619 212.417V214.597H223.098V166.076H225.394C225.248 167.638 225.178 169.222 225.203 170.826C225.59 194.289 244.927 212.992 268.39 212.605V212.605Z" fill="#2EE8A2"/>
<path d="M247.694 170.456C247.878 181.495 256.975 190.297 268.019 190.117C269.252 190.097 270.457 189.959 271.623 189.726V212.417C270.557 212.517 269.481 212.588 268.394 212.605C244.931 212.992 225.594 194.289 225.207 170.826C225.182 169.222 225.253 167.638 225.399 166.076H248.111C247.819 167.488 247.673 168.951 247.698 170.456H247.694Z" fill="#4CA495"/>
<path d="M247.694 170.456C247.669 168.955 247.815 167.488 248.107 166.076H271.619V189.726C270.452 189.959 269.248 190.097 268.014 190.117C256.975 190.301 247.873 181.499 247.69 170.456H247.694Z" fill="#2EE8A2"/>
<path d="M216.093 0.000144958V48.5213H167.572V0.000144958H216.093Z" fill="#00CA8B"/>
<path d="M191.584 1.00453C204.291 1.00453 214.592 11.3057 214.592 24.0128C214.592 36.7199 204.291 47.0211 191.584 47.0211C178.877 47.0211 168.576 36.7199 168.576 24.0128C168.576 11.3057 178.877 1.00453 191.584 1.00453Z" fill="#4CA495"/>
<path d="M55.5266 110.549C55.5266 123.947 66.3868 134.812 79.7892 134.812C93.1916 134.812 104.052 123.951 104.052 110.549" fill="#377E8D"/>
<path d="M48.5211 166.076C34.9854 166.076 24.0084 176.936 24.0084 190.338C24.0084 203.741 34.9812 214.601 48.5211 214.601" fill="#2EE8A2"/>
<path d="M272.624 55.0266V103.548H224.102V55.0266H272.624Z" fill="#00CA8B"/>
<path d="M248.111 55.0267V79.5393H224.102V55.0267H248.111Z" fill="#00CA8B"/>
<path d="M248.361 55.0266C234.963 55.0266 224.098 65.8869 224.098 79.2893C224.098 92.6917 234.959 103.552 248.361 103.552" fill="#2EE8A2"/>
<path d="M272.869 55.0266C259.471 55.0266 248.607 65.8869 248.607 79.2893C248.607 92.6917 259.467 103.552 272.869 103.552" fill="#4CA495"/>
<path d="M68.3705 110.549C68.3705 116.854 73.484 121.968 79.7893 121.968C86.0945 121.968 91.2079 116.854 91.2079 110.549" fill="#00CA8B"/>
<path d="M215.097 55.5267V104.048H166.576V55.5267H215.097Z" fill="#2EE8A2"/>
<path d="M215.472 55.4017C202.074 55.4017 191.209 66.262 191.209 79.6644C191.209 93.0626 202.069 103.927 215.472 103.927" fill="#4CA495"/>
<path d="M48.5253 55.0266V103.548H0.00418472V55.0266H48.5253Z" fill="#00CA8B"/>
<path d="M0 55.0266C0 68.4249 10.8603 79.2893 24.2627 79.2893C37.6651 79.2893 48.5253 68.429 48.5253 55.0266" fill="#377E8D"/>
<path d="M159.57 110.553V159.074H111.049V110.553H159.57Z" fill="#4CA495"/>
<path d="M111.049 159.07V110.549L159.57 159.07H111.049Z" fill="#377E8D"/>
<path d="M135.312 134.812L159.57 110.549V159.07L135.312 134.812Z" fill="#00CA8B"/>
<path d="M106.048 47.5211H57.5269V-1H106.048V47.5211Z" fill="#2EE8A2"/>
<path d="M81.7896 23.2626L106.048 47.5211H57.5269L81.7896 23.2626Z" fill="#00CA8B"/>
<path d="M0.00418472 110.549H48.5253L48.5253 159.07H0.00418472L0.00418472 110.549Z" fill="#2EE8A2"/>
<path d="M166.576 166.071H215.097V214.593H166.576V166.071Z" fill="#00CA8B"/>
<path d="M48.5211 159.07H0L48.5211 110.549V159.07Z" fill="#4CA495"/>
<path d="M190.584 166.076V214.597H166.576V166.076H190.584Z" fill="#4CA495"/>
<path d="M215.097 166.076V190.084H190.584V166.076H215.097Z" fill="#377E8D"/>
<path d="M48.5212 -0.495739V48.0254H1.90735e-05V-0.495739H48.5212Z" fill="#2EE8A2"/>
<path d="M48.5211 23.5127H0V-0.495756H48.5211V23.5127Z" fill="#4CA495"/>
<path d="M48.5211 48.0212H24.5127V23.5085H48.5211V48.0212Z" fill="#4CA495"/>
<path d="M159.57 -0.495754V48.0254H111.049V-0.495754H159.57Z" fill="#00CA8B"/>
<path d="M159.57 23.5127H111.049V-0.495756H159.57V23.5127Z" fill="#377E8D"/>
<path d="M48.5253 79.5393V103.548H0.00418472V79.5393H48.5253Z" fill="#2EE8A2"/>
<path d="M104.048 55.0267V103.548H55.5266V55.0267H104.048Z" fill="#4CA495"/>
<path d="M55.5266 55.0266C55.5266 81.548 77.5263 103.048 104.048 103.048V55.0266" fill="#377E8D"/>
<path d="M48.5253 608.881V657.402H0.00418091V608.881H48.5253Z" fill="#00CA8B"/>
<path d="M104.048 608.881V657.402H55.5266V608.881H104.048Z" fill="#00CA8B"/>
<path d="M24.0126 633.394V657.402H0.00418663V633.394H24.0126Z" fill="#377E8D"/>
<path d="M24.0126 608.881V633.393H0.00419044V608.881H24.0126Z" fill="#4CA495"/>
<path d="M55.5266 657.402V619.883L93.0416 657.456L55.5266 657.402Z" fill="#4CA495"/>
<path d="M64.1948 608.872L104.048 648.563V608.881L64.1948 608.872Z" fill="#4CA495"/>
<path d="M158.574 608.881V657.402H110.053V608.881H158.574Z" fill="#4CA495"/>
<path d="M104.048 553.354V601.875H55.5266V553.354H104.048Z" fill="#00CA8B"/>
<path d="M215.097 553.354V601.875H166.576V553.354H215.097Z" fill="#00CA8B"/>
<path d="M215.097 553.354V567.361H166.576V553.354H215.097Z" fill="#377E8D"/>
<path d="M215.093 587.869V601.875H166.571V587.869H215.093Z" fill="#377E8D"/>
<path d="M224.603 442.309H273.124V490.831H224.603V442.309Z" fill="#4CA495"/>
<path d="M224.603 442.309H238.609V490.831H224.603V442.309Z" fill="#377E8D"/>
<path d="M259.113 442.309H273.12V490.831H259.113V442.309Z" fill="#377E8D"/>
<path d="M272.619 553.358V601.88H224.098V553.358H272.619Z" fill="#4CA495"/>
<path d="M272.624 570.361V601.875H224.102V570.361H272.624Z" fill="#2EE8A2"/>
<path d="M159.574 497.832V546.353H111.053V497.832H159.574Z" fill="#4CA495"/>
<path d="M159.57 516.839V526.945H111.049V516.839H159.57Z" fill="#2EE8A2"/>
<path d="M159.57 497.832V507.938H111.049V497.832H159.57Z" fill="#2EE8A2"/>
<path d="M159.574 536.247V546.353H111.053V536.247H159.574Z" fill="#2EE8A2"/>
<path d="M134.061 609.881C146.769 609.881 157.07 620.182 157.07 632.889C157.07 645.596 146.769 655.898 134.061 655.898C121.354 655.898 111.053 645.596 111.053 632.889C111.053 620.182 121.354 609.881 134.061 609.881Z" fill="#377E8D"/>
<path d="M134.061 622.062C140.041 622.062 144.888 626.91 144.888 632.889C144.888 638.869 140.041 643.716 134.061 643.716C128.082 643.716 123.234 638.869 123.234 632.889C123.234 626.91 128.082 622.062 134.061 622.062Z" fill="#377E8D"/>
<path d="M268.39 655.41C269.477 655.393 270.552 655.318 271.619 655.222V657.402H223.098V608.881H225.394C225.248 610.444 225.178 612.027 225.203 613.632C225.59 637.094 244.927 655.798 268.39 655.41V655.41Z" fill="#2EE8A2"/>
<path d="M247.694 613.261C247.878 624.3 256.975 633.102 268.019 632.923C269.252 632.902 270.457 632.764 271.623 632.531V655.222C270.557 655.322 269.481 655.393 268.394 655.41C244.931 655.797 225.594 637.094 225.207 613.632C225.182 612.027 225.253 610.444 225.399 608.881H248.111C247.819 610.294 247.673 611.756 247.698 613.261H247.694Z" fill="#4CA495"/>
<path d="M247.694 613.261C247.669 611.76 247.815 610.294 248.107 608.881H271.619V632.531C270.452 632.764 269.248 632.902 268.014 632.923C256.975 633.106 247.873 624.304 247.69 613.261H247.694Z" fill="#2EE8A2"/>
<path d="M216.093 442.805V491.327H167.572V442.805H216.093Z" fill="#00CA8B"/>
<path d="M191.584 443.81C204.291 443.81 214.592 454.111 214.592 466.818C214.592 479.525 204.291 489.826 191.584 489.826C178.877 489.826 168.576 479.525 168.576 466.818C168.576 454.111 178.877 443.81 191.584 443.81Z" fill="#4CA495"/>
<path d="M55.5266 553.354C55.5266 566.752 66.3868 577.617 79.7892 577.617C93.1916 577.617 104.052 566.757 104.052 553.354" fill="#377E8D"/>
<path d="M48.5211 608.881C34.9854 608.881 24.0084 619.741 24.0084 633.143C24.0084 646.546 34.9812 657.406 48.5211 657.406" fill="#2EE8A2"/>
<path d="M272.624 497.832V546.353H224.102V497.832H272.624Z" fill="#00CA8B"/>
<path d="M248.111 497.832V522.345H224.102V497.832H248.111Z" fill="#00CA8B"/>
<path d="M248.361 497.832C234.963 497.832 224.098 508.692 224.098 522.095C224.098 535.497 234.959 546.357 248.361 546.357" fill="#2EE8A2"/>
<path d="M272.869 497.832C259.471 497.832 248.607 508.692 248.607 522.095C248.607 535.497 259.467 546.357 272.869 546.357" fill="#4CA495"/>
<path d="M68.3705 553.354C68.3705 559.66 73.484 564.773 79.7893 564.773C86.0945 564.773 91.2079 559.66 91.2079 553.354" fill="#00CA8B"/>
<path d="M215.097 498.332V546.853H166.576V498.332H215.097Z" fill="#2EE8A2"/>
<path d="M215.472 498.207C202.074 498.207 191.209 509.067 191.209 522.47C191.209 535.868 202.069 546.732 215.472 546.732" fill="#4CA495"/>
<path d="M48.5253 497.832V546.353H0.00418472V497.832H48.5253Z" fill="#00CA8B"/>
<path d="M0 497.832C0 511.23 10.8603 522.095 24.2627 522.095C37.6651 522.095 48.5253 511.234 48.5253 497.832" fill="#377E8D"/>
<path d="M159.57 553.358V601.88H111.049V553.358H159.57Z" fill="#4CA495"/>
<path d="M111.049 601.875V553.354L159.57 601.875H111.049Z" fill="#377E8D"/>
<path d="M135.312 577.617L159.57 553.354V601.875L135.312 577.617Z" fill="#00CA8B"/>
<path d="M106.048 490.326H57.5269V441.805H106.048V490.326Z" fill="#2EE8A2"/>
<path d="M81.7896 466.068L106.048 490.326H57.5269L81.7896 466.068Z" fill="#00CA8B"/>
<path d="M0.00418472 553.354H48.5253L48.5253 601.875H0.00418472L0.00418472 553.354Z" fill="#2EE8A2"/>
<path d="M166.576 608.877H215.097V657.398H166.576V608.877Z" fill="#00CA8B"/>
<path d="M48.5211 601.875H0L48.5211 553.354V601.875Z" fill="#4CA495"/>
<path d="M190.584 608.881V657.402H166.576V608.881H190.584Z" fill="#4CA495"/>
<path d="M215.097 608.881V632.889H190.584V608.881H215.097Z" fill="#377E8D"/>
<path d="M48.5212 442.309V490.831H1.90735e-05V442.309H48.5212Z" fill="#2EE8A2"/>
<path d="M48.5211 466.318H0V442.309H48.5211V466.318Z" fill="#4CA495"/>
<path d="M48.5211 490.826H24.5127V466.314H48.5211V490.826Z" fill="#4CA495"/>
<path d="M159.57 442.309V490.831H111.049V442.309H159.57Z" fill="#00CA8B"/>
<path d="M159.57 466.318H111.049V442.309H159.57V466.318Z" fill="#377E8D"/>
<path d="M48.5253 522.345V546.353H0.00418472V522.345H48.5253Z" fill="#2EE8A2"/>
<path d="M104.048 497.832V546.353H55.5266V497.832H104.048Z" fill="#4CA495"/>
<path d="M55.5266 497.832C55.5266 524.353 77.5263 545.853 104.048 545.853V497.832" fill="#377E8D"/>
<path d="M224.598 387.62V436.141H273.119V387.62H224.598Z" fill="#00CA8B"/>
<path d="M169.076 387.62V436.141H217.597V387.62H169.076Z" fill="#00CA8B"/>
<path d="M249.111 412.132V436.141H273.119V412.132H249.111Z" fill="#377E8D"/>
<path d="M249.111 387.619V412.132H273.119V387.619H249.111Z" fill="#4CA495"/>
<path d="M217.597 436.141V398.621L180.082 436.195L217.597 436.141Z" fill="#4CA495"/>
<path d="M208.929 387.611L169.076 427.302V387.62L208.929 387.611Z" fill="#4CA495"/>
<path d="M114.55 387.62V436.141H163.071V387.62H114.55Z" fill="#4CA495"/>
<path d="M169.076 332.093V380.614H217.597V332.093H169.076Z" fill="#00CA8B"/>
<path d="M58.027 332.093V380.614H106.548V332.093H58.027Z" fill="#00CA8B"/>
<path d="M58.027 332.093V346.1H106.548V332.093H58.027Z" fill="#377E8D"/>
<path d="M58.0311 366.607V380.614H106.552V366.607H58.0311Z" fill="#377E8D"/>
<path d="M48.5211 221.048H0L0 269.569H48.5211L48.5211 221.048Z" fill="#4CA495"/>
<path d="M48.5211 221.048H34.5145L34.5145 269.569H48.5211L48.5211 221.048Z" fill="#377E8D"/>
<path d="M14.0108 221.048H0.00415039L0.00415039 269.569H14.0108L14.0108 221.048Z" fill="#377E8D"/>
<path d="M0.504211 332.097L0.504211 380.618H49.0254V332.097H0.504211Z" fill="#4CA495"/>
<path d="M0.500061 349.1L0.500061 380.614H49.0212V349.1H0.500061Z" fill="#2EE8A2"/>
<path d="M113.549 276.571V325.092H162.07V276.571H113.549Z" fill="#4CA495"/>
<path d="M113.554 295.578V305.684H162.075V295.578H113.554Z" fill="#2EE8A2"/>
<path d="M113.554 276.571V286.677H162.075V276.571H113.554Z" fill="#2EE8A2"/>
<path d="M113.549 314.986V325.092H162.07V314.986H113.549Z" fill="#2EE8A2"/>
<path d="M139.062 388.62C126.355 388.62 116.054 398.921 116.054 411.628C116.054 424.335 126.355 434.636 139.062 434.636C151.769 434.636 162.07 424.335 162.07 411.628C162.07 398.921 151.769 388.62 139.062 388.62Z" fill="#2EE8A2"/>
<path d="M139.062 400.801C133.083 400.801 128.235 405.648 128.235 411.628C128.235 417.607 133.083 422.455 139.062 422.455C145.042 422.455 149.889 417.607 149.889 411.628C149.889 405.648 145.042 400.801 139.062 400.801Z" fill="#377E8D"/>
<path d="M4.73414 434.149C3.64645 434.132 2.57126 434.057 1.5044 433.961V436.141H50.0256V387.62H47.7293C47.8752 389.182 47.946 390.766 47.921 392.37C47.5334 415.833 28.1967 434.536 4.73414 434.149V434.149Z" fill="#2EE8A2"/>
<path d="M25.4295 391.999C25.2461 403.039 16.1487 411.84 5.10502 411.661C3.87147 411.64 2.66708 411.503 1.5002 411.27V433.961C2.56706 434.061 3.64225 434.132 4.72994 434.149C28.1925 434.536 47.5292 415.833 47.9168 392.37C47.9418 390.766 47.871 389.182 47.7251 387.619H25.0127C25.3045 389.032 25.4503 390.495 25.4253 391.999H25.4295Z" fill="#4CA495"/>
<path d="M25.4295 391.999C25.4545 390.499 25.3087 389.032 25.017 387.62H1.50443V411.27C2.6713 411.503 3.8757 411.64 5.10925 411.661C16.1487 411.845 25.2503 403.043 25.4337 391.999H25.4295Z" fill="#2EE8A2"/>
<path d="M57.0309 221.544V270.065H105.552V221.544H57.0309Z" fill="#00CA8B"/>
<path d="M81.5395 222.548C68.8324 222.548 58.5312 232.85 58.5312 245.557C58.5312 258.264 68.8324 268.565 81.5395 268.565C94.2466 268.565 104.548 258.264 104.548 245.557C104.548 232.85 94.2466 222.548 81.5395 222.548Z" fill="#4CA495"/>
<path d="M217.597 332.093C217.597 345.491 206.737 356.356 193.334 356.356C179.932 356.356 169.072 345.495 169.072 332.093" fill="#377E8D"/>
<path d="M224.603 387.619C238.138 387.619 249.115 398.48 249.115 411.882C249.115 425.285 238.142 436.145 224.603 436.145" fill="#2EE8A2"/>
<path d="M0.500061 276.571L0.500061 325.092H49.0212V276.571H0.500061Z" fill="#00CA8B"/>
<path d="M25.0128 276.571V301.083H49.0212V276.571H25.0128Z" fill="#00CA8B"/>
<path d="M24.7627 276.571C38.161 276.571 49.0254 287.431 49.0254 300.833C49.0254 314.236 38.1651 325.096 24.7627 325.096" fill="#2EE8A2"/>
<path d="M0.2542 276.571C13.6524 276.571 24.5168 287.431 24.5168 300.833C24.5168 314.236 13.6566 325.096 0.2542 325.096" fill="#4CA495"/>
<path d="M204.753 332.093C204.753 338.398 199.64 343.512 193.334 343.512C187.029 343.512 181.916 338.398 181.916 332.093" fill="#00CA8B"/>
<path d="M58.027 277.071V325.592H106.548V277.071H58.027Z" fill="#2EE8A2"/>
<path d="M57.6519 276.946C71.0501 276.946 81.9146 287.806 81.9146 301.208C81.9146 314.606 71.0542 325.471 57.6519 325.471" fill="#4CA495"/>
<path d="M224.598 276.571V325.092H273.119V276.571H224.598Z" fill="#00CA8B"/>
<path d="M273.124 276.571C273.124 289.969 262.263 300.833 248.861 300.833C235.459 300.833 224.598 289.973 224.598 276.571" fill="#377E8D"/>
<path d="M113.554 332.097V380.618H162.075V332.097H113.554Z" fill="#4CA495"/>
<path d="M162.075 380.614V332.093L113.553 380.614H162.075Z" fill="#377E8D"/>
<path d="M137.812 356.356L113.554 332.093V380.614L137.812 356.356Z" fill="#00CA8B"/>
<path d="M167.076 269.065H215.597V220.544H167.076V269.065Z" fill="#2EE8A2"/>
<path d="M191.334 244.807L167.076 269.065H215.597L191.334 244.807Z" fill="#00CA8B"/>
<path d="M273.119 332.093H224.598V380.614H273.119V332.093Z" fill="#2EE8A2"/>
<path d="M106.548 387.615H58.027L58.027 436.137H106.548V387.615Z" fill="#00CA8B"/>
<path d="M224.603 380.614H273.124L224.603 332.093V380.614Z" fill="#4CA495"/>
<path d="M82.5397 387.62V436.141H106.548V387.62H82.5397Z" fill="#4CA495"/>
<path d="M58.027 387.619V411.628H82.5397V387.619H58.027Z" fill="#377E8D"/>
<path d="M224.602 221.048V269.569H273.124V221.048H224.602Z" fill="#2EE8A2"/>
<path d="M224.603 245.057H273.124V221.048H224.603V245.057Z" fill="#4CA495"/>
<path d="M224.603 269.565H248.611V245.052H224.603V269.565Z" fill="#4CA495"/>
<path d="M113.554 221.048V269.569H162.075V221.048H113.554Z" fill="#00CA8B"/>
<path d="M113.554 245.057H162.075V221.048H113.554V245.057Z" fill="#377E8D"/>
<path d="M224.598 301.083V325.092H273.119V301.083H224.598Z" fill="#2EE8A2"/>
<path d="M169.076 276.571V325.092H217.597V276.571H169.076Z" fill="#4CA495"/>
<path d="M217.597 276.571C217.597 303.092 195.597 324.592 169.076 324.592V276.571" fill="#377E8D"/>
<path d="M224.598 830.425V878.946H273.119V830.425H224.598Z" fill="#00CA8B"/>
<path d="M169.076 830.425V878.946H217.597V830.425H169.076Z" fill="#00CA8B"/>
<path d="M249.111 854.937V878.946H273.119V854.937H249.111Z" fill="#377E8D"/>
<path d="M249.111 830.425V854.937H273.119V830.425H249.111Z" fill="#4CA495"/>
<path d="M217.597 878.946V841.427L180.082 879L217.597 878.946Z" fill="#4CA495"/>
<path d="M208.929 830.416L169.076 870.107V830.425L208.929 830.416Z" fill="#4CA495"/>
<path d="M114.55 830.425V878.946H163.071V830.425H114.55Z" fill="#4CA495"/>
<path d="M169.076 774.898V823.419H217.597V774.898H169.076Z" fill="#00CA8B"/>
<path d="M58.027 774.898V823.419H106.548V774.898H58.027Z" fill="#00CA8B"/>
<path d="M58.027 774.898V788.905H106.548V774.898H58.027Z" fill="#377E8D"/>
<path d="M58.0311 809.413V823.419H106.552V809.413H58.0311Z" fill="#377E8D"/>
<path d="M48.5211 663.853H0L0 712.374H48.5211L48.5211 663.853Z" fill="#4CA495"/>
<path d="M48.5211 663.853H34.5145L34.5145 712.374H48.5211L48.5211 663.853Z" fill="#377E8D"/>
<path d="M14.0108 663.853H0.00415039L0.00415039 712.374H14.0108L14.0108 663.853Z" fill="#377E8D"/>
<path d="M0.504211 774.902L0.504211 823.423H49.0254V774.902H0.504211Z" fill="#4CA495"/>
<path d="M0.500061 791.905L0.500061 823.419H49.0212V791.905H0.500061Z" fill="#2EE8A2"/>
<path d="M113.549 719.376V767.897H162.07V719.376H113.549Z" fill="#4CA495"/>
<path d="M113.554 738.383V748.489H162.075V738.383H113.554Z" fill="#2EE8A2"/>
<path d="M113.554 719.376V729.482H162.075V719.376H113.554Z" fill="#2EE8A2"/>
<path d="M113.549 757.791V767.897H162.07V757.791H113.549Z" fill="#2EE8A2"/>
<path d="M139.062 831.425C126.355 831.425 116.054 841.726 116.054 854.433C116.054 867.14 126.355 877.441 139.062 877.441C151.769 877.441 162.07 867.14 162.07 854.433C162.07 841.726 151.769 831.425 139.062 831.425Z" fill="#2EE8A2"/>
<path d="M139.062 843.606C133.083 843.606 128.235 848.454 128.235 854.433C128.235 860.413 133.083 865.26 139.062 865.26C145.042 865.26 149.889 860.413 149.889 854.433C149.889 848.454 145.042 843.606 139.062 843.606Z" fill="#377E8D"/>
<path d="M4.73414 876.954C3.64645 876.937 2.57126 876.862 1.5044 876.766V878.946H50.0256V830.425H47.7293C47.8752 831.987 47.946 833.571 47.921 835.176C47.5334 858.638 28.1967 877.341 4.73414 876.954V876.954Z" fill="#2EE8A2"/>
<path d="M25.4295 834.805C25.2461 845.844 16.1487 854.646 5.10502 854.466C3.87147 854.446 2.66708 854.308 1.5002 854.075V876.766C2.56706 876.866 3.64225 876.937 4.72994 876.954C28.1925 877.341 47.5292 858.638 47.9168 835.176C47.9418 833.571 47.871 831.987 47.7251 830.425H25.0127C25.3045 831.837 25.4503 833.3 25.4253 834.805H25.4295Z" fill="#4CA495"/>
<path d="M25.4295 834.805C25.4545 833.304 25.3087 831.837 25.017 830.425H1.50443V854.075C2.6713 854.308 3.8757 854.446 5.10925 854.466C16.1487 854.65 25.2503 845.848 25.4337 834.805H25.4295Z" fill="#2EE8A2"/>
<path d="M57.0309 664.349V712.87H105.552V664.349H57.0309Z" fill="#00CA8B"/>
<path d="M81.5395 665.354C68.8324 665.354 58.5312 675.655 58.5312 688.362C58.5312 701.069 68.8324 711.37 81.5395 711.37C94.2466 711.37 104.548 701.069 104.548 688.362C104.548 675.655 94.2466 665.354 81.5395 665.354Z" fill="#4CA495"/>
<path d="M217.597 774.898C217.597 788.296 206.737 799.161 193.334 799.161C179.932 799.161 169.072 788.301 169.072 774.898" fill="#377E8D"/>
<path d="M224.603 830.425C238.138 830.425 249.115 841.285 249.115 854.687C249.115 868.09 238.142 878.95 224.603 878.95" fill="#2EE8A2"/>
<path d="M0.500061 719.376L0.500061 767.897H49.0212V719.376H0.500061Z" fill="#00CA8B"/>
<path d="M25.0128 719.376V743.888H49.0212V719.376H25.0128Z" fill="#00CA8B"/>
<path d="M24.7627 719.376C38.161 719.376 49.0254 730.236 49.0254 743.638C49.0254 757.041 38.1651 767.901 24.7627 767.901" fill="#2EE8A2"/>
<path d="M0.2542 719.376C13.6524 719.376 24.5168 730.236 24.5168 743.638C24.5168 757.041 13.6566 767.901 0.2542 767.901" fill="#4CA495"/>
<path d="M204.753 774.898C204.753 781.203 199.64 786.317 193.334 786.317C187.029 786.317 181.916 781.203 181.916 774.898" fill="#00CA8B"/>
<path d="M58.027 719.876V768.397H106.548V719.876H58.027Z" fill="#2EE8A2"/>
<path d="M57.6519 719.751C71.0501 719.751 81.9146 730.611 81.9146 744.013C81.9146 757.412 71.0542 768.276 57.6519 768.276" fill="#4CA495"/>
<path d="M224.598 719.376V767.897H273.119V719.376H224.598Z" fill="#00CA8B"/>
<path d="M273.124 719.376C273.124 732.774 262.263 743.638 248.861 743.638C235.459 743.638 224.598 732.778 224.598 719.376" fill="#377E8D"/>
<path d="M113.554 774.902V823.423H162.075V774.902H113.554Z" fill="#4CA495"/>
<path d="M162.075 823.419V774.898L113.553 823.419H162.075Z" fill="#377E8D"/>
<path d="M137.812 799.161L113.554 774.898V823.419L137.812 799.161Z" fill="#00CA8B"/>
<path d="M167.076 711.87H215.597V663.349H167.076V711.87Z" fill="#2EE8A2"/>
<path d="M191.334 687.612L167.076 711.87H215.597L191.334 687.612Z" fill="#00CA8B"/>
<path d="M273.119 774.898H224.598V823.419H273.119V774.898Z" fill="#2EE8A2"/>
<path d="M106.548 830.421H58.027L58.027 878.942H106.548V830.421Z" fill="#00CA8B"/>
<path d="M224.603 823.419H273.124L224.603 774.898V823.419Z" fill="#4CA495"/>
<path d="M82.5397 830.425V878.946H106.548V830.425H82.5397Z" fill="#4CA495"/>
<path d="M58.027 830.425V854.433H82.5397V830.425H58.027Z" fill="#377E8D"/>
<path d="M224.602 663.853V712.374H273.124V663.853H224.602Z" fill="#2EE8A2"/>
<path d="M224.603 687.862H273.124V663.853H224.603V687.862Z" fill="#4CA495"/>
<path d="M224.603 712.37H248.611V687.858H224.603V712.37Z" fill="#4CA495"/>
<path d="M113.554 663.853V712.374H162.075V663.853H113.554Z" fill="#00CA8B"/>
<path d="M113.554 687.862H162.075V663.853H113.554V687.862Z" fill="#377E8D"/>
<path d="M224.598 743.888V767.897H273.119V743.888H224.598Z" fill="#2EE8A2"/>
<path d="M169.076 719.376V767.897H217.597V719.376H169.076Z" fill="#4CA495"/>
<path d="M217.597 719.376C217.597 745.897 195.597 767.397 169.076 767.397V719.376" fill="#377E8D"/>
</g>
<defs>
<clipPath id="clip0_460_7734">
<rect width="273" height="886" fill="white"/>
</clipPath>
</defs>
</svg>
