<svg width="128" height="40" viewBox="0 0 128 40" fill="none" xmlns="http://www.w3.org/2000/svg">
<path d="M54.8901 27.5581H52.1137C51.9126 27.5581 51.812 27.4574 51.812 27.2558V26.1977H51.7818C50.8966 27.3264 49.6392 27.8907 48.0095 27.8907C46.4805 27.8907 45.2633 27.3868 44.358 26.3791C43.4527 25.3713 43 24.0713 43 22.4791V13.2884C43 13.0868 43.1006 12.986 43.3018 12.986H46.0782C46.2793 12.986 46.3799 13.0868 46.3799 13.2884V21.693C46.3799 22.6605 46.6113 23.4364 47.074 24.0209C47.5368 24.5853 48.2107 24.8674 49.0959 24.8674C49.9409 24.8674 50.6048 24.5853 51.0877 24.0209C51.5705 23.4364 51.812 22.6705 51.812 21.7233V13.2884C51.812 13.0868 51.9126 12.986 52.1137 12.986H54.8901C55.0913 12.986 55.1919 13.0868 55.1919 13.2884V27.2558C55.1919 27.4574 55.0913 27.5581 54.8901 27.5581Z" fill="#222222"/>
<path d="M63.459 27.8907C60.9442 27.8907 58.8619 27.1248 57.2122 25.593C57.0713 25.4519 57.0713 25.3109 57.2122 25.1698L58.9323 23.3558C59.0731 23.2147 59.214 23.2147 59.3548 23.3558C59.898 23.8395 60.5519 24.2426 61.3164 24.5651C62.101 24.8674 62.8655 25.0186 63.6099 25.0186C64.475 25.0186 65.1389 24.8674 65.6016 24.5651C66.0644 24.2426 66.2957 23.8194 66.2957 23.2953C66.2957 22.8318 66.1147 22.469 65.7525 22.207C65.4105 21.945 64.7868 21.7736 63.8815 21.693L62.3122 21.5419C59.3347 21.2395 57.8459 19.8085 57.8459 17.2488C57.8459 15.8178 58.3388 14.6992 59.3246 13.893C60.3104 13.0667 61.6986 12.6535 63.4892 12.6535C65.6218 12.6535 67.4425 13.2481 68.9514 14.4372C69.1123 14.5581 69.1325 14.6992 69.0118 14.8605L67.533 16.6442C67.4123 16.7853 67.2715 16.8054 67.1105 16.7047C65.9638 15.8984 64.6963 15.4953 63.3081 15.4953C62.604 15.4953 62.0608 15.6364 61.6785 15.9186C61.2963 16.2008 61.1051 16.5636 61.1051 17.007C61.1051 17.4504 61.2761 17.8031 61.6182 18.0651C61.9803 18.307 62.604 18.4682 63.4892 18.5488L65.0584 18.7C66.5472 18.8411 67.6638 19.2845 68.4082 20.0302C69.1727 20.776 69.555 21.7535 69.555 22.9628C69.555 24.4543 69.0218 25.6535 67.9555 26.5605C66.9094 27.4473 65.4105 27.8907 63.459 27.8907Z" fill="#222222"/>
<path d="M83.3477 27.5581H80.5713C80.3701 27.5581 80.2695 27.4574 80.2695 27.2558V26.1674H80.2394C79.4346 27.3163 78.147 27.8907 76.3766 27.8907C73.7813 27.8907 72.1014 26.7217 71.3369 24.3837C70.9949 23.3357 70.8238 21.9651 70.8238 20.2721C70.8238 18.5791 70.9949 17.2085 71.3369 16.1605C72.1014 13.8225 73.7813 12.6535 76.3766 12.6535C78.147 12.6535 79.4346 13.2279 80.2394 14.3767H80.2695V7.30233C80.2695 7.10078 80.3701 7 80.5713 7H83.3477C83.5489 7 83.6495 7.10078 83.6495 7.30233V27.2558C83.6495 27.4574 83.5489 27.5581 83.3477 27.5581ZM77.2517 24.8674C78.6601 24.8674 79.5654 24.2426 79.9678 22.993C80.1689 22.3682 80.2695 21.4612 80.2695 20.2721C80.2695 19.0829 80.1689 18.176 79.9678 17.5512C79.5654 16.3015 78.6601 15.6767 77.2517 15.6767C75.8636 15.6767 74.9683 16.3015 74.5659 17.5512C74.3647 18.176 74.2641 19.0829 74.2641 20.2721C74.2641 21.4612 74.3647 22.3682 74.5659 22.993C74.9683 24.2426 75.8636 24.8674 77.2517 24.8674Z" fill="#222222"/>
<path d="M89.6224 33H86.846C86.6448 33 86.5442 32.8992 86.5442 32.6977V13.2884C86.5442 13.0868 86.6448 12.986 86.846 12.986H89.6224C89.8235 12.986 89.9241 13.0868 89.9241 13.2884V14.3767H89.9543C90.7591 13.2279 92.0466 12.6535 93.8171 12.6535C96.4124 12.6535 98.0923 13.8225 98.8568 16.1605C99.1988 17.2085 99.3698 18.5791 99.3698 20.2721C99.3698 21.9651 99.1988 23.3357 98.8568 24.3837C98.0923 26.7217 96.4124 27.8907 93.8171 27.8907C92.0466 27.8907 90.7591 27.3163 89.9543 26.1674H89.9241V32.6977C89.9241 32.8992 89.8235 33 89.6224 33ZM92.9419 24.8674C94.3301 24.8674 95.2254 24.2426 95.6278 22.993C95.8289 22.3682 95.9295 21.4612 95.9295 20.2721C95.9295 19.0829 95.8289 18.176 95.6278 17.5512C95.2254 16.3015 94.3301 15.6767 92.9419 15.6767C91.5336 15.6767 90.6283 16.3015 90.2259 17.5512C90.0247 18.176 89.9241 19.0829 89.9241 20.2721C89.9241 21.4612 90.0247 22.3682 90.2259 22.993C90.6283 24.2426 91.5336 24.8674 92.9419 24.8674Z" fill="#222222"/>
<path d="M112.676 27.5581H110.141C109.94 27.5581 109.839 27.4574 109.839 27.2558V26.1977H109.809C109.024 27.3264 107.656 27.8907 105.705 27.8907C104.297 27.8907 103.13 27.5178 102.204 26.7721C101.279 26.0062 100.816 24.8977 100.816 23.4465C100.816 21.8946 101.319 20.7357 102.325 19.9698C103.351 19.2039 104.789 18.8209 106.64 18.8209H109.598C109.719 18.8209 109.779 18.7605 109.779 18.6395V17.9442C109.779 17.0977 109.537 16.4829 109.055 16.1C108.572 15.7171 107.737 15.5256 106.55 15.5256C105.182 15.5256 104.075 15.8581 103.23 16.5233C103.049 16.6643 102.908 16.6442 102.808 16.4628L101.691 14.4674C101.591 14.3062 101.611 14.1752 101.752 14.0744C103.059 13.1271 104.779 12.6535 106.912 12.6535C109.105 12.6535 110.664 13.0566 111.59 13.8628C112.515 14.6488 112.978 15.9388 112.978 17.7326V27.2558C112.978 27.4574 112.877 27.5581 112.676 27.5581ZM106.55 25.1395C108.703 25.1395 109.779 24.3132 109.779 22.6605V21.5419C109.779 21.4209 109.719 21.3605 109.598 21.3605H107.184C105.091 21.3605 104.045 22.0155 104.045 23.3256C104.045 24.5349 104.88 25.1395 106.55 25.1395Z" fill="#222222"/>
<path d="M117.039 33H116.104C115.902 33 115.802 32.8992 115.802 32.6977V30.2791C115.802 30.0775 115.902 29.9767 116.104 29.9767H116.647C117.21 29.9767 117.653 29.8457 117.975 29.5837C118.317 29.3217 118.598 28.8783 118.82 28.2535L119.242 27.014L113.931 13.2884C113.87 13.0868 113.951 12.986 114.172 12.986H117.16C117.341 12.986 117.462 13.0868 117.522 13.2884L120.811 22.8116H120.872L124.01 13.2884C124.07 13.0868 124.191 12.986 124.372 12.986H127.239C127.46 12.986 127.541 13.0868 127.481 13.2884L121.928 28.4651C121.304 30.1783 120.63 31.3574 119.906 32.0023C119.202 32.6674 118.246 33 117.039 33Z" fill="#222222"/>
<g clip-path="url(#clip0_77_746)">
<path d="M24.9829 15.9194L25.7197 16.3448L26.4564 16.7701L26.8248 16.9828C26.8248 16.9828 28.6859 18.0573 30.5085 19.1096C32.9939 20.5446 34.4862 21.9913 33.9028 24.7716C33.655 26.014 33.0235 27.5143 32.0083 29.2727C30.9931 31.0311 30.0095 32.3282 29.0575 33.164C26.9414 35.0594 24.5603 35.4288 22.0748 33.9939C20.2522 32.9416 18.2225 31.7697 18.2225 31.7697L17.6717 32.7237L15.3956 36.666C15.2802 36.8658 15.119 36.9059 14.9119 36.7863L9.3197 33.5577C9.11259 33.4381 9.06671 33.2784 9.18207 33.0786L18.0139 17.7814C19.4214 15.3435 22.5646 14.5232 24.9829 15.9194L-nan -nanL24.9829 15.9194Z" fill="url(#paint0_angular_77_746)"/>
<path d="M18.3862 7.79467L19.123 8.22003L19.8597 8.64539L20.2281 8.85807C20.2281 8.85807 22.0892 9.93258 23.9118 10.9849C26.3972 12.4198 28.4068 14.1904 27.8234 16.9708C27.8234 16.9708 26.4268 19.3896 25.4116 21.148C24.3964 22.9064 23.4128 24.2035 22.4608 25.0393C20.3447 26.9347 17.9636 27.3041 15.4782 25.8692C13.6555 24.8169 11.6258 23.645 11.6258 23.645L11.075 24.599L8.79892 28.5412C8.68355 28.741 8.52231 28.7812 8.3152 28.6616L2.72302 25.4329C2.5159 25.3134 2.47003 25.1537 2.58539 24.9538L11.4172 9.65671C12.8247 7.21881 15.9679 6.39845 18.3862 7.79467L-nan -nanL18.3862 7.79467Z" fill="white"/>
<path d="M15.4978 23.3915L14.7611 22.9661L14.0243 22.5408L13.6559 22.3281C13.6559 22.3281 11.7948 21.2536 9.9722 20.2013C7.48679 18.7663 5.99447 17.3196 6.57791 14.5392C6.82571 13.2969 7.45721 11.7965 8.47243 10.0381C9.48764 8.27974 10.4712 6.98265 11.4232 6.14688C13.5394 4.25145 15.9205 3.88205 18.4059 5.317C20.2285 6.3693 22.2583 7.54118 22.2583 7.54118L22.809 6.58718L25.0851 2.64493C25.2005 2.44511 25.3617 2.40499 25.5688 2.52457L31.161 5.75321C31.3681 5.87279 31.414 6.03249 31.2986 6.23231L22.4668 21.5294C21.0593 23.9673 17.9161 24.7877 15.4978 23.3915L-nan -nanL15.4978 23.3915Z" fill="url(#paint1_angular_77_746)"/>
</g>
<defs>
<radialGradient id="paint0_angular_77_746" cx="0" cy="0" r="1" gradientUnits="userSpaceOnUse" gradientTransform="translate(23.2537 30.616) rotate(-104.769) scale(8.13677 12.2653)">
<stop stop-color="#00E393"/>
<stop offset="0.269393" stop-color="#0CCF92"/>
<stop offset="0.487445" stop-color="#17BD90"/>
<stop offset="1" stop-color="#2F948C"/>
</radialGradient>
<radialGradient id="paint1_angular_77_746" cx="0" cy="0" r="1" gradientUnits="userSpaceOnUse" gradientTransform="translate(17.9591 11.4718) rotate(75.2308) scale(12.4445 15.5747)">
<stop stop-color="#00E394"/>
<stop offset="1" stop-color="#25A8A0"/>
</radialGradient>
<clipPath id="clip0_77_746">
<rect width="40" height="40" fill="white"/>
</clipPath>
</defs>
</svg>
