<svg xmlns="http://www.w3.org/2000/svg" xmlns:xlink="http://www.w3.org/1999/xlink">
    <symbol viewBox="0 0 18 18" id="exit" xmlns="http://www.w3.org/2000/svg">
        <path
            d="M4.75736 4.75736C3.91824 5.59647 3.3468 6.66557 3.11529 7.82946C2.88378 8.99334 3.0026 10.1997 3.45672 11.2961C3.91085 12.3925 4.67988 13.3295 5.66658 13.9888C6.65327 14.6481 7.81331 15 9 15C10.1867 15 11.3467 14.6481 12.3334 13.9888C13.3201 13.3295 14.0892 12.3925 14.5433 11.2961C14.9974 10.1997 15.1162 8.99334 14.8847 7.82946C14.6532 6.66557 14.0818 5.59647 13.2426 4.75736"
            stroke="#222222" stroke-width="1.5" stroke-linecap="round" />
        <path d="M9 6L9 3" stroke="#222222" stroke-width="1.5" stroke-linecap="round" />
    </symbol>
    <symbol viewBox="0 0 12 12" id="arrow_right" xmlns="http://www.w3.org/2000/svg">
        <path d="M4.5 9.5L7.5 6L4.5 2.5" stroke-width="1.5" stroke-linecap="round" />
    </symbol>
    <symbol viewBox="0 0 12 12" id="arrow_left" xmlns="http://www.w3.org/2000/svg">
        <path d="M7.5 9.5L4.5 6L7.5 2.5" stroke-width="1.5" stroke-linecap="round" />
    </symbol>
    <symbol viewBox="0 0 12 12" id="arrow_top" xmlns="http://www.w3.org/2000/svg">
        <path d="M9.5 7.5L6 4.5L2.5 7.5" stroke="#B9B9B9" stroke-width="1.5" stroke-linecap="round" />
    </symbol>
    <symbol viewBox="0 0 12 12" id="arrow_bottom" xmlns="http://www.w3.org/2000/svg">
        <path d="M2.5 4.5L6 7.5L9.5 4.5" stroke="#B9B9B9" stroke-width="1.5" stroke-linecap="round" />
    </symbol>
    <symbol viewBox="0 0 20 20" id="wallet" xmlns="http://www.w3.org/2000/svg">
        <rect x="1.66667" y="5" width="16.6667" height="13.3333" rx="5" stroke="#129B75" stroke-width="1.5" />
        <path
            d="M15.8333 5.41667V5.41667C15.8333 3.48077 14.0565 2.03249 12.1604 2.42287L5.65841 3.76151C3.33436 4.23999 1.66667 6.286 1.66667 8.6588L1.66667 10.8333"
            stroke="#129B75" stroke-width="1.5" />
        <path d="M5 14.5833H10" stroke="#129B75" stroke-width="1.5" stroke-linecap="round" stroke-linejoin="round" />
        <path
            d="M12.5 11.6667C12.5 10.5161 13.4327 9.58334 14.5833 9.58334H18.3333V13.75H14.5833C13.4327 13.75 12.5 12.8173 12.5 11.6667V11.6667Z"
            stroke="#129B75" stroke-width="1.5" />
        <path d="M14.5833 11.6667H14.75" stroke="#129B75" stroke-width="1.5" stroke-linecap="round"
            stroke-linejoin="round" />
    </symbol>
    <symbol viewBox="0 0 24 24" id="plus" xmlns="http://www.w3.org/2000/svg">
        <path d="M3.75 12H20.25" stroke="#006848"  stroke-linecap="round" stroke-linejoin="round" />
        <path d="M12 3.75V20.25" stroke="#006848"  stroke-linecap="round" stroke-linejoin="round" />
    </symbol>
    <symbol viewBox="0 0 24 24" id="arrow_lenght_right" xmlns="http://www.w3.org/2000/svg">
        <path d="M3.75 12L20.25 12" stroke="#006848" stroke-width="1.5" stroke-linecap="round"
            stroke-linejoin="round" />
        <path d="M13.5 5.25L20.25 12L13.5 18.75" stroke="#006848" stroke-width="1.5" stroke-linecap="round"
            stroke-linejoin="round" />
    </symbol>
    <symbol viewBox="0 0 20 20" id="eye" xmlns="http://www.w3.org/2000/svg">
        <path
            d="M2.66714 10.6537C2.44428 10.2462 2.44429 9.75371 2.66715 9.3462C4.08334 6.75669 6.83613 5 9.99997 5C13.1639 5 15.9167 6.75674 17.3329 9.34632C17.5557 9.75383 17.5557 10.2463 17.3328 10.6538C15.9167 13.2433 13.1639 15 10 15C6.83614 15 4.08331 13.2433 2.66714 10.6537Z"
            stroke="#00CA8B" stroke-width="1.5" />
        <circle cx="10" cy="10" r="2.5" stroke="#00CA8B" stroke-width="1.5" />
    </symbol>
    <symbol viewBox="0 0 20 20" id="eye_hide" xmlns="http://www.w3.org/2000/svg">
        <g opacity="0.3">
            <path
                d="M5.57923 14.3702C4.02964 13.5462 2.75084 12.2819 1.91044 10.7452C1.58539 10.1508 1.5854 9.43232 1.91045 8.83794C3.43205 6.05569 6.39067 4.16663 9.79163 4.16663C11.506 4.16663 13.1081 4.64667 14.4702 5.47917L12.1769 7.77253C11.6036 7.09604 10.7478 6.66663 9.79166 6.66663C8.06577 6.66663 6.66666 8.06574 6.66666 9.79163C6.66666 10.7478 7.09607 11.6036 7.77256 12.1769L5.57923 14.3702Z"
                fill="#129B75" />
            <path
                d="M6.80778 14.9094C7.74126 15.2379 8.74554 15.4166 9.79168 15.4166C13.1926 15.4166 16.1513 13.5276 17.6729 10.7453C17.9979 10.151 17.9979 9.43245 17.6729 8.83807C17.122 7.83079 16.3828 6.94059 15.5025 6.2147L12.7943 8.92286C12.874 9.19867 12.9167 9.49017 12.9167 9.79163C12.9167 11.5175 11.5175 12.9166 9.79166 12.9166C9.49019 12.9166 9.1987 12.8739 8.92289 12.7943L6.80778 14.9094Z"
                fill="#129B75" />
        </g>
        <path
            d="M9.79166 9.79166L8.47037 11.122C8.1284 10.7823 7.91666 10.3117 7.91666 9.79166C7.91666 8.75612 8.75612 7.91666 9.79166 7.91666C10.2187 7.91666 10.6124 8.05942 10.9276 8.29983L9.79166 9.79166Z"
            fill="#129B75" />
        <path d="M15.8333 3.33331L3.33331 15.8333" stroke="#129B75" stroke-width="1.5" stroke-linecap="round"
            stroke-linejoin="round" />
    </symbol>
    <symbol viewBox="0 0 20 20" id="eye_show" xmlns="http://www.w3.org/2000/svg">
        <path fill-rule="evenodd" clip-rule="evenodd" d="M9.99997 4.375C6.59902 4.375 3.64039 6.26405 2.1188 9.04631C1.79374 9.64068 1.79373 10.3592 2.11878 10.9536C3.64036 13.7359 6.59902 15.625 10 15.625C13.401 15.625 16.3596 13.7359 17.8812 10.9537C18.2063 10.3593 18.2063 9.64082 17.8812 9.04644C16.3596 6.26411 13.401 4.375 9.99997 4.375ZM10 8.25C9.0335 8.25 8.25 9.0335 8.25 10C8.25 10.9665 9.0335 11.75 10 11.75C10.5069 11.75 10.9635 11.5345 11.2831 11.19C10.7804 11.0281 10.4167 10.5565 10.4167 10C10.4167 9.44346 10.7804 8.97186 11.2831 8.80995C10.9635 8.46553 10.5069 8.25 10 8.25ZM6.75 10C6.75 8.20507 8.20507 6.75 10 6.75C11.7949 6.75 13.25 8.20507 13.25 10C13.25 11.7949 11.7949 13.25 10 13.25C8.20507 13.25 6.75 11.7949 6.75 10Z" fill="#129B75" fill-opacity="0.3"/>
    </symbol>
    <symbol viewBox="0 0 20 20" id="comment" xmlns="http://www.w3.org/2000/svg">
        <path
            d="M16.6666 10C16.6666 7.50773 16.6666 6.26158 16.1307 5.33337C15.7797 4.7253 15.2747 4.22035 14.6666 3.86927C13.7384 3.33337 12.4923 3.33337 9.99998 3.33337V3.33337C7.50767 3.33337 6.26152 3.33337 5.33331 3.86927C4.72524 4.22035 4.22029 4.7253 3.86921 5.33337C3.33331 6.26158 3.33331 7.50773 3.33331 10V14.6667C3.33331 15.6095 3.33331 16.0809 3.62621 16.3738C3.9191 16.6667 4.3905 16.6667 5.33331 16.6667H9.99998C12.4923 16.6667 13.7384 16.6667 14.6666 16.1308C15.2747 15.7797 15.7797 15.2748 16.1307 14.6667C16.6666 13.7385 16.6666 12.4923 16.6666 10V10Z"
            stroke="#00CA8B" stroke-width="1.5" />
        <path d="M7.5 8.33337L12.5 8.33337" stroke="#00CA8B" stroke-width="1.5" stroke-linecap="round"
            stroke-linejoin="round" />
        <path d="M7.5 11.6666H10" stroke="#00CA8B" stroke-width="1.5" stroke-linecap="round" stroke-linejoin="round" />
    </symbol>
    <symbol viewBox="0 0 20 20" id="update" xmlns="http://www.w3.org/2000/svg">
        <path fill-rule="evenodd" clip-rule="evenodd"
            d="M4.1526 9.16674C4.5799 9.15954 4.9375 9.47525 4.99262 9.88883L4.99986 9.98591L5.00289 10.1724C5.09369 12.8601 7.30268 15 9.99998 15C10.1558 15 10.3105 14.9929 10.4639 14.9788L10.2441 14.7559C9.91862 14.4304 9.91862 13.9028 10.2441 13.5774C10.5695 13.2519 11.0971 13.2519 11.4226 13.5774L13.0892 15.244C13.4147 15.5695 13.4147 16.0971 13.0892 16.4225L11.4226 18.0892C11.0971 18.4147 10.5695 18.4147 10.2441 18.0892C9.91862 17.7638 9.91862 17.2361 10.2441 16.9107L10.5093 16.6474C10.3405 16.6602 10.1706 16.6666 9.99998 16.6666C6.4739 16.6666 3.57403 13.9245 3.3472 10.4254L3.33682 10.2146L3.33343 10.014C3.32567 9.55384 3.69242 9.17451 4.1526 9.16674ZM9.7559 1.9107C10.0563 2.21111 10.0794 2.6838 9.82523 3.01071L9.7559 3.08922L9.49095 3.35247C9.65965 3.33972 9.82942 3.33329 9.99998 3.33329C13.6819 3.33329 16.6666 6.31806 16.6666 9.99996C16.6666 10.4602 16.2936 10.8333 15.8333 10.8333C15.3731 10.8333 15 10.4602 15 9.99996C15 7.23854 12.7614 4.99996 9.99998 4.99996C9.84409 4.99996 9.68925 5.00707 9.53577 5.02117L9.7559 5.24404C10.0813 5.56947 10.0813 6.09711 9.7559 6.42255C9.4555 6.72295 8.98281 6.74606 8.6559 6.49187L8.57739 6.42255L6.91073 4.75588C6.61032 4.45548 6.58722 3.98279 6.8414 3.65588L6.91073 3.57737L8.57739 1.9107C8.90283 1.58527 9.43047 1.58527 9.7559 1.9107Z"
            fill="#C4C4C4" />

    </symbol>
    <symbol viewBox="0 0 16 16" id="danger" xmlns="http://www.w3.org/2000/svg">
        <path fill-rule="evenodd" clip-rule="evenodd"
            d="M8.60129 1.61038C8.20439 1.531 7.79569 1.531 7.39879 1.61038C6.51686 1.78676 5.75686 2.34153 5.32007 3.12774L1.19613 10.5508C0.958221 10.9791 0.833374 11.4609 0.833374 11.9508C0.833374 13.5428 2.12396 14.8334 3.71598 14.8334H12.2841C13.8761 14.8334 15.1667 13.5428 15.1667 11.9508C15.1667 11.4609 15.0419 10.9791 14.804 10.5508L10.68 3.12775C10.2432 2.34153 9.48322 1.78676 8.60129 1.61038ZM8.00004 9.41673C7.58583 9.41673 7.25004 9.08094 7.25004 8.66673V6.00006C7.25004 5.58585 7.58583 5.25006 8.00004 5.25006C8.41425 5.25006 8.75004 5.58585 8.75004 6.00006V8.66673C8.75004 9.08094 8.41425 9.41673 8.00004 9.41673ZM8.75004 11.0001C8.75004 11.4143 8.41425 11.7501 8.00004 11.7501C7.58583 11.7501 7.25004 11.4143 7.25004 11.0001V10.6667C7.25004 10.2525 7.58583 9.91673 8.00004 9.91673C8.41425 9.91673 8.75004 10.2525 8.75004 10.6667V11.0001Z"
            fill="#222222" />
    </symbol>
    <symbol viewBox="0 0 16 16" id="close" xmlns="http://www.w3.org/2000/svg">
        <path d="M12 4L4 12" stroke-width="1.5" stroke-linecap="round" stroke-linejoin="round" />
        <path d="M4 4L12 12"  stroke-width="1.5" stroke-linecap="round" stroke-linejoin="round" />

    </symbol>
    <symbol viewBox="0 0 24 24" id="add_plus" xmlns="http://www.w3.org/2000/svg">
        <circle cx="12" cy="12" r="9" stroke="#00402C" stroke-width="1.5" />
        <path d="M12 15L12 9" stroke="#00402C" stroke-width="1.5" stroke-linecap="square" />
        <path d="M15 12L9 12" stroke="#00402C" stroke-width="1.5" stroke-linecap="square" />

    </symbol>
    <symbol viewBox="0 0 16 16" id="check" xmlns="http://www.w3.org/2000/svg">
        <path d="M13.5 4.5L6.5 11.5L3 8" stroke="#129B75" stroke-width="1.5" stroke-linecap="round"
            stroke-linejoin="round" />
    </symbol>
    <symbol viewBox="0 0 20 20" id="category" xmlns="http://www.w3.org/2000/svg">
        <rect x="3.33337" y="3.33334" width="5.83333" height="5.83333" rx="2.5" stroke="#222222" stroke-width="1.5" />
        <rect x="3.33337" y="11.6667" width="5.83333" height="5.83333" rx="2.5" stroke="#222222" stroke-width="1.5" />
        <rect x="11.6667" y="3.33334" width="5.83333" height="5.83333" rx="2.5" stroke="#222222" stroke-width="1.5" />
        <rect x="11.6667" y="11.6667" width="5.83333" height="5.83333" rx="2.5" stroke="#222222" stroke-width="1.5" />

    </symbol>
    <symbol viewBox="0 0 20 20" id="store" xmlns="http://www.w3.org/2000/svg">
        <path
            d="M12.0833 16.25V13.5C12.0833 12.9477 11.6356 12.5 11.0833 12.5H9.99996H8.91663C8.36434 12.5 7.91663 12.9477 7.91663 13.5V16.25"
            stroke="#00402C" stroke-width="1.5" stroke-linecap="round" stroke-linejoin="round" />
        <path
            d="M4.16663 9.16666V12.25C4.16663 14.1356 4.16663 15.0784 4.75241 15.6642C5.3382 16.25 6.28101 16.25 8.16663 16.25H11.8333C13.7189 16.25 14.6617 16.25 15.2475 15.6642C15.8333 15.0784 15.8333 14.1356 15.8333 12.25V9.16666"
            stroke="#00402C" stroke-width="1.5" />
        <path
            d="M3.78793 4.01493C3.96982 3.28737 4.06077 2.92359 4.33203 2.71179C4.60329 2.5 4.97827 2.5 5.72822 2.5H14.2718C15.0217 2.5 15.3967 2.5 15.668 2.71179C15.9392 2.92359 16.0302 3.28737 16.2121 4.01493L17.152 7.77448C17.1857 7.90964 17.2026 7.97722 17.21 8.03145C17.2861 8.58886 16.8876 9.0993 16.3283 9.16069C16.2739 9.16667 16.2004 9.16667 16.0534 9.16667V9.16667C15.876 9.16667 15.7873 9.16667 15.7139 9.16125C14.8484 9.09745 14.1229 8.48281 13.9176 7.63963C13.9002 7.56809 13.8865 7.48555 13.859 7.32047V7.32047C13.8513 7.27431 13.8474 7.25123 13.8452 7.24422C13.8153 7.15185 13.6847 7.15185 13.6548 7.24422C13.6526 7.25123 13.6487 7.27431 13.641 7.32047L13.5731 7.72818C13.4347 8.55826 12.7165 9.16667 11.875 9.16667V9.16667C11.0335 9.16667 10.3153 8.55826 10.1769 7.72818L10.109 7.32047C10.1013 7.27431 10.0974 7.25123 10.0952 7.24422C10.0653 7.15185 9.93466 7.15185 9.90484 7.24422C9.90257 7.25123 9.89873 7.27431 9.89103 7.32047L9.82308 7.72818C9.68473 8.55826 8.96654 9.16667 8.125 9.16667V9.16667C7.28346 9.16667 6.56527 8.55826 6.42692 7.72818L6.35897 7.32047C6.35127 7.27431 6.34743 7.25123 6.34516 7.24422C6.31534 7.15185 6.18466 7.15185 6.15484 7.24422C6.15257 7.25123 6.14873 7.27431 6.14103 7.32047V7.32047C6.11352 7.48555 6.09976 7.56809 6.08235 7.63963C5.87714 8.48281 5.15158 9.09745 4.28613 9.16125C4.2127 9.16667 4.124 9.16667 3.94659 9.16667V9.16667C3.79956 9.16667 3.72605 9.16667 3.67165 9.16069C3.11243 9.0993 2.71389 8.58886 2.78996 8.03145C2.79736 7.97722 2.81426 7.90964 2.84805 7.77448L3.78793 4.01493Z"
            stroke="#00402C" stroke-width="1.5" />

    </symbol>
    <symbol viewBox="0 0 20 20" id="receipts" xmlns="http://www.w3.org/2000/svg">
        <path
            d="M15.8333 10.4167V15.8823C15.8333 16.7126 14.8799 17.1812 14.2225 16.6741L13.475 16.0974C13.1402 15.8391 12.6791 15.8194 12.3234 16.048L11.0815 16.8464C10.4227 17.27 9.57726 17.27 8.91844 16.8464L7.67649 16.048C7.3208 15.8194 6.85973 15.8391 6.52493 16.0974L5.77743 16.6741C5.12 17.1812 4.16663 16.7126 4.16663 15.8823V2.91669H9.99996"
            stroke="#222222" stroke-width="1.5" />
        <path d="M7.5 7.91667H10" stroke="#222222" stroke-width="1.5" stroke-linecap="round" stroke-linejoin="round" />
        <path d="M3 2.91669H10" stroke="#222222" stroke-width="1.5" stroke-linecap="round" stroke-linejoin="round" />
        <path d="M15.5 1L15.5 6" stroke="#222222" stroke-width="1.5" stroke-linecap="round" />
        <path d="M18 3.5L13 3.5" stroke="#222222" stroke-width="1.5" stroke-linecap="round" />
        <path d="M15.8334 15.8237L15.8334 8.82367" stroke="#222222" stroke-width="1.5" stroke-linecap="round"
            stroke-linejoin="round" />
        <path d="M7.5 11.25H10" stroke="#222222" stroke-width="1.5" stroke-linecap="round" stroke-linejoin="round" />
        <path d="M12.5 7.91667H12.9167" stroke="#222222" stroke-width="1.5" stroke-linecap="round"
            stroke-linejoin="round" />
        <path d="M12.5 11.25H12.9167" stroke="#222222" stroke-width="1.5" stroke-linecap="round"
            stroke-linejoin="round" />

    </symbol>
    <symbol viewBox="0 0 20 20" id="payments" xmlns="http://www.w3.org/2000/svg">
        <path
            d="M15.8333 11.4167V16.8823C15.8333 17.7126 14.8799 18.1812 14.2225 17.674L13.475 17.0974C13.1402 16.8391 12.6791 16.8193 12.3234 17.048L11.0815 17.8464C10.4227 18.2699 9.57726 18.2699 8.91844 17.8464L7.67649 17.048C7.3208 16.8193 6.85973 16.8391 6.52493 17.0974L5.77743 17.674C5.12 18.1812 4.16663 17.7126 4.16663 16.8823V3.91666H9.99996"
            stroke="#222222" stroke-width="1.5" />
        <path d="M7.5 8.91667H10" stroke="#222222" stroke-width="1.5" stroke-linecap="round" stroke-linejoin="round" />
        <path d="M3 3.91666H10" stroke="#222222" stroke-width="1.5" stroke-linecap="round" stroke-linejoin="round" />
        <path d="M15.8334 16.8237L15.8334 9.82367" stroke="#222222" stroke-width="1.5" stroke-linecap="round"
            stroke-linejoin="round" />
        <path d="M7.5 12.25H10" stroke="#222222" stroke-width="1.5" stroke-linecap="round" stroke-linejoin="round" />
        <path d="M12.5 8.91667H12.9167" stroke="#222222" stroke-width="1.5" stroke-linecap="round"
            stroke-linejoin="round" />
        <path d="M12.5 12.25H12.9167" stroke="#222222" stroke-width="1.5" stroke-linecap="round"
            stroke-linejoin="round" />
        <path d="M14.667 6.41669L16.8134 4.27026C17.0087 4.07499 17.0087 3.75841 16.8134 3.56315L14.667 1.41672"
            stroke="#222222" stroke-width="1.5" stroke-linecap="round" />
        <path d="M16.1669 3.91669L8.07312 3.91669" stroke="#222222" stroke-width="1.5" stroke-linecap="round" />
    </symbol>
    <symbol viewBox="0 0 20 20" id="partners" xmlns="http://www.w3.org/2000/svg">
        <path
            d="M1.66663 7.35724C1.66663 6.25267 2.56206 5.35724 3.66663 5.35724H16.3333C17.4379 5.35724 18.3333 6.25267 18.3333 7.35724V8.15486C18.3333 9.03808 17.754 9.81673 16.908 10.0705L11.1493 11.7981C10.3996 12.023 9.60032 12.023 8.85057 11.7981L3.09193 10.0705C2.24596 9.81673 1.66663 9.03808 1.66663 8.15486V7.35724Z"
            stroke="#222222" stroke-width="1.5" />
        <path d="M10 9.6431L10 8.21454" stroke="#222222" stroke-width="1.5" stroke-linecap="round"
            stroke-linejoin="round" />
        <path
            d="M2.36108 9.64276L2.36108 13.4999C2.36108 15.709 4.15195 17.4999 6.36109 17.4999H13.6389C15.848 17.4999 17.6389 15.709 17.6389 13.4999V9.64276"
            stroke="#222222" stroke-width="1.5" />
        <path
            d="M12.7777 5.35713V4.5C12.7777 3.39543 11.8823 2.5 10.7777 2.5H9.22217C8.1176 2.5 7.22217 3.39543 7.22217 4.5L7.22217 5.35713"
            stroke="#222222" stroke-width="1.5" />

    </symbol>
    <symbol viewBox="0 0 20 20" id="settings" xmlns="http://www.w3.org/2000/svg">
        <circle r="2.5" transform="matrix(-1 0 0 1 10 10)" stroke="#222222" stroke-width="1.5" />
        <path
            d="M13.75 4.1146L13.375 4.76412L13.375 4.76412L13.75 4.1146ZM13.75 15.8851L14.125 16.5347L14.125 16.5347L13.75 15.8851ZM6.24999 15.8851L5.87499 16.5347L5.87499 16.5347L6.24999 15.8851ZM6.25 4.1146L6.625 4.76412L6.625 4.76412L6.25 4.1146ZM2.50446 8.14062L2.00294 8.69827L2.50446 8.14062ZM4.51803 15.5971L4.37314 14.8612L4.51803 15.5971ZM3.6086 15.3478L4.18356 14.8662L3.6086 15.3478ZM8.04037 18.1017L7.86464 18.8308L8.04037 18.1017ZM7.413 17.3965L6.68909 17.5926L7.413 17.3965ZM12.587 17.3964L11.8631 17.2003L12.587 17.3964ZM11.9596 18.1016L12.1354 18.8308L11.9596 18.1016ZM15.4819 15.5971L15.337 16.3329L15.4819 15.5971ZM17.8332 7.14993L17.1284 7.40642L17.8332 7.14993ZM17.4955 8.14062L16.9939 7.58297L17.4955 8.14062ZM2.16675 12.8501L1.46197 13.1066L2.16675 12.8501ZM2.50446 11.8594L2.00294 11.3018L2.50446 11.8594ZM15.4818 4.40272L15.337 3.66684L15.4818 4.40272ZM3.60883 4.65201L3.0339 4.1704L3.60883 4.65201ZM17.4955 11.8594L16.9939 12.4171L17.4955 11.8594ZM17.8332 12.8501L17.1284 12.5936L17.8332 12.8501ZM12.5871 2.60353L13.311 2.40735L12.5871 2.60353ZM11.9598 1.89844L11.784 2.62756L11.9598 1.89844ZM11.8632 2.79972C12.0797 3.5984 12.6009 4.31718 13.375 4.76412L14.125 3.46508C13.7079 3.22425 13.428 2.8391 13.311 2.40735L11.8632 2.79972ZM13.375 4.76412C14.0831 5.17291 14.8829 5.28497 15.6266 5.13861L15.337 3.66684C14.9357 3.74581 14.507 3.68562 14.125 3.46508L13.375 4.76412ZM18.538 6.89344C18.1732 5.89114 17.6373 4.97174 16.966 4.17043L15.8162 5.13364C16.3772 5.80337 16.8243 6.57089 17.1284 7.40642L18.538 6.89344ZM17.4166 10C17.4166 9.48331 17.6396 9.01968 17.997 8.69827L16.9939 7.58297C16.3336 8.17683 15.9166 9.04023 15.9166 10H17.4166ZM17.997 11.3018C17.6396 10.9804 17.4166 10.5167 17.4166 10H15.9166C15.9166 10.9598 16.3336 11.8232 16.9939 12.4171L17.997 11.3018ZM16.9663 15.8293C17.6374 15.0281 18.1732 14.1088 18.538 13.1066L17.1284 12.5936C16.8244 13.4291 16.3773 14.1965 15.8164 14.8662L16.9663 15.8293ZM14.125 16.5347C14.507 16.3141 14.9357 16.2539 15.337 16.3329L15.6268 14.8612C14.883 14.7148 14.0831 14.8268 13.375 15.2356L14.125 16.5347ZM13.3109 17.5926C13.4279 17.1607 13.7078 16.7755 14.125 16.5347L13.375 15.2356C12.6008 15.6826 12.0795 16.4015 11.8631 17.2003L13.3109 17.5926ZM9.99996 19.0834C10.7346 19.0834 11.4498 18.996 12.1354 18.8308L11.7839 17.3725C11.2126 17.5102 10.6153 17.5834 9.99996 17.5834V19.0834ZM7.86464 18.8308C8.5502 18.996 9.26538 19.0834 9.99996 19.0834V17.5834C9.38466 17.5834 8.78743 17.5102 8.2161 17.3725L7.86464 18.8308ZM5.87499 16.5347C6.29217 16.7755 6.57211 17.1607 6.68909 17.5926L8.1369 17.2003C7.9205 16.4015 7.39921 15.6826 6.62499 15.2356L5.87499 16.5347ZM4.66292 16.3329C5.06426 16.2539 5.49297 16.3141 5.87499 16.5347L6.62499 15.2356C5.91686 14.8268 5.11693 14.7148 4.37314 14.8612L4.66292 16.3329ZM1.46197 13.1066C1.8267 14.1088 2.36252 15.0281 3.03365 15.8293L4.18356 14.8662C3.62264 14.1965 3.17557 13.4291 2.87153 12.5936L1.46197 13.1066ZM2.58332 10C2.58332 10.5167 2.36032 10.9804 2.00294 11.3018L3.00598 12.4171C3.66631 11.8232 4.08332 10.9598 4.08332 10H2.58332ZM2.00294 8.69827C2.36032 9.01968 2.58332 9.4833 2.58332 10H4.08332C4.08332 9.04023 3.66631 8.17683 3.00598 7.58296L2.00294 8.69827ZM3.0339 4.1704C2.36265 4.97172 1.82675 5.89112 1.46197 6.89343L2.87153 7.40641C3.17561 6.57088 3.62275 5.80335 4.18377 5.13362L3.0339 4.1704ZM5.875 3.46508C5.49301 3.68562 5.06434 3.74582 4.66302 3.66683L4.37333 5.13859C5.11706 5.28498 5.91692 5.17293 6.625 4.76412L5.875 3.46508ZM6.68906 2.40733C6.57205 2.83909 6.29213 3.22425 5.875 3.46508L6.625 4.76412C7.39912 4.31718 7.92038 3.59839 8.13683 2.79969L6.68906 2.40733ZM9.99996 0.916687C9.26535 0.916687 8.55014 1.00405 7.86456 1.16929L8.21603 2.62753C8.78738 2.48982 9.38463 2.41669 9.99996 2.41669V0.916687ZM12.1355 1.16932C11.4499 1.00406 10.7346 0.916687 9.99996 0.916687V2.41669C10.6153 2.41669 11.2126 2.48983 11.784 2.62756L12.1355 1.16932ZM8.13683 2.79969C8.15806 2.72135 8.18909 2.66711 8.21272 2.63878C8.23302 2.61443 8.23492 2.62298 8.21603 2.62753L7.86456 1.16929C7.16274 1.33844 6.8145 1.94445 6.68906 2.40733L8.13683 2.79969ZM3.00598 7.58296C2.93724 7.52114 2.8975 7.45815 2.88162 7.41651C2.86821 7.38138 2.87909 7.38564 2.87153 7.40641L1.46197 6.89343C1.18244 7.66152 1.60973 8.34464 2.00294 8.69827L3.00598 7.58296ZM4.37314 14.8612C4.29369 14.8768 4.23143 14.8731 4.19555 14.8645C4.16469 14.8571 4.17127 14.8515 4.18356 14.8662L3.03365 15.8293C3.49632 16.3817 4.19246 16.4256 4.66292 16.3329L4.37314 14.8612ZM8.2161 17.3725C8.23499 17.3771 8.23309 17.3856 8.21279 17.3613C8.18916 17.3329 8.15813 17.2787 8.1369 17.2003L6.68909 17.5926C6.81451 18.0555 7.16275 18.6616 7.86464 18.8308L8.2161 17.3725ZM11.8631 17.2003C11.8419 17.2787 11.8108 17.3329 11.7872 17.3613C11.7669 17.3856 11.765 17.3771 11.7839 17.3725L12.1354 18.8308C12.8373 18.6616 13.1855 18.0555 13.3109 17.5926L11.8631 17.2003ZM15.8164 14.8662C15.8287 14.8515 15.8352 14.857 15.8044 14.8645C15.7685 14.8731 15.7063 14.8768 15.6268 14.8612L15.337 16.3329C15.8075 16.4256 16.5036 16.3817 16.9663 15.8293L15.8164 14.8662ZM17.1284 7.40642C17.1208 7.38565 17.1317 7.38139 17.1183 7.41652C17.1024 7.45815 17.0627 7.52115 16.9939 7.58297L17.997 8.69827C18.3902 8.34464 18.8175 7.66153 18.538 6.89344L17.1284 7.40642ZM2.87153 12.5936C2.87909 12.6144 2.86821 12.6187 2.88162 12.5835C2.8975 12.5419 2.93723 12.4789 3.00598 12.4171L2.00294 11.3018C1.60973 11.6554 1.18244 12.3385 1.46197 13.1066L2.87153 12.5936ZM15.6266 5.13861C15.7061 5.12297 15.7683 5.12673 15.8042 5.13534C15.835 5.14275 15.8285 5.14832 15.8162 5.13364L16.966 4.17043C16.5034 3.61814 15.8074 3.57426 15.337 3.66684L15.6266 5.13861ZM4.18377 5.13362C4.17148 5.14829 4.1649 5.14273 4.19576 5.13532C4.23163 5.12671 4.29388 5.12295 4.37333 5.13859L4.66302 3.66683C4.1926 3.57423 3.49654 3.6181 3.0339 4.1704L4.18377 5.13362ZM16.9939 12.4171C17.0627 12.4789 17.1024 12.5419 17.1183 12.5835C17.1317 12.6186 17.1208 12.6144 17.1284 12.5936L18.538 13.1066C18.8175 12.3385 18.3902 11.6554 17.997 11.3018L16.9939 12.4171ZM13.311 2.40735C13.1855 1.94447 12.8373 1.33849 12.1355 1.16932L11.784 2.62756C11.7651 2.62301 11.767 2.61446 11.7873 2.63881C11.811 2.66714 11.842 2.72138 11.8632 2.79972L13.311 2.40735Z"
            fill="#222222" />
    </symbol>
    <symbol viewBox="0 0 20 20" id="api" xmlns="http://www.w3.org/2000/svg">
        <path d="M9.99996 3.33331L4.16663 5.83331L9.99996 8.33331L15.8333 5.83331L9.99996 3.33331Z" stroke="#222222"
            stroke-width="1.5" stroke-linejoin="round" />
        <path fill-rule="evenodd" clip-rule="evenodd"
            d="M5.8545 8.73267L3.96967 9.54045C3.78582 9.61924 3.66663 9.80001 3.66663 10C3.66663 10.2 3.78582 10.3808 3.96967 10.4596L9.803 12.9596C9.92877 13.0135 10.0711 13.0135 10.1969 12.9596L16.0303 10.4596C16.2141 10.3808 16.3333 10.2 16.3333 10C16.3333 9.80001 16.2141 9.61924 16.0303 9.54045L14.1454 8.73267L12.8761 9.27665L14.564 10L9.99996 11.956L5.43592 10L7.12379 9.27665L5.8545 8.73267Z"
            fill="#222222" />
        <path
            d="M3.96967 9.54045L3.87119 9.31066L3.87119 9.31066L3.96967 9.54045ZM5.8545 8.73267L5.95298 8.50288C5.89009 8.47593 5.81891 8.47593 5.75602 8.50288L5.8545 8.73267ZM3.96967 10.4596L3.87119 10.6894L3.87119 10.6894L3.96967 10.4596ZM9.803 12.9596L9.90148 12.7298L9.90148 12.7298L9.803 12.9596ZM10.1969 12.9596L10.0984 12.7298L10.0984 12.7298L10.1969 12.9596ZM16.0303 10.4596L16.1287 10.6894L16.1287 10.6894L16.0303 10.4596ZM16.0303 9.54045L16.1287 9.31066L16.1287 9.31066L16.0303 9.54045ZM14.1454 8.73267L14.2439 8.50288C14.181 8.47593 14.1098 8.47593 14.0469 8.50288L14.1454 8.73267ZM12.8761 9.27665L12.7776 9.04686C12.6857 9.08626 12.6261 9.17664 12.6261 9.27665C12.6261 9.37666 12.6857 9.46704 12.7776 9.50644L12.8761 9.27665ZM14.564 10L14.6625 10.2298C14.7544 10.1904 14.814 10.1 14.814 10C14.814 9.90002 14.7544 9.80963 14.6625 9.77024L14.564 10ZM9.99996 11.956L9.90148 12.1858C9.96437 12.2128 10.0356 12.2128 10.0984 12.1858L9.99996 11.956ZM5.43592 10L5.33744 9.77024C5.24552 9.80963 5.18592 9.90002 5.18592 10C5.18592 10.1 5.24552 10.1904 5.33744 10.2298L5.43592 10ZM7.12379 9.27665L7.22227 9.50644C7.31419 9.46704 7.37379 9.37666 7.37379 9.27665C7.37379 9.17664 7.31419 9.08626 7.22227 9.04686L7.12379 9.27665ZM4.06815 9.77024L5.95298 8.96245L5.75602 8.50288L3.87119 9.31066L4.06815 9.77024ZM3.91663 10C3.91663 9.90002 3.97623 9.80963 4.06815 9.77024L3.87119 9.31066C3.59542 9.42885 3.41663 9.7 3.41663 10H3.91663ZM4.06815 10.2298C3.97623 10.1904 3.91663 10.1 3.91663 10H3.41663C3.41663 10.3 3.59542 10.5712 3.87119 10.6894L4.06815 10.2298ZM9.90148 12.7298L4.06815 10.2298L3.87119 10.6894L9.70452 13.1894L9.90148 12.7298ZM10.0984 12.7298C10.0356 12.7568 9.96437 12.7568 9.90148 12.7298L9.70452 13.1894C9.89318 13.2702 10.1067 13.2702 10.2954 13.1894L10.0984 12.7298ZM15.9318 10.2298L10.0984 12.7298L10.2954 13.1894L16.1287 10.6894L15.9318 10.2298ZM16.0833 10C16.0833 10.1 16.0237 10.1904 15.9318 10.2298L16.1287 10.6894C16.4045 10.5712 16.5833 10.3 16.5833 10H16.0833ZM15.9318 9.77024C16.0237 9.80963 16.0833 9.90002 16.0833 10H16.5833C16.5833 9.7 16.4045 9.42885 16.1287 9.31066L15.9318 9.77024ZM14.0469 8.96245L15.9318 9.77024L16.1287 9.31066L14.2439 8.50288L14.0469 8.96245ZM14.0469 8.50288L12.7776 9.04686L12.9746 9.50644L14.2439 8.96245L14.0469 8.50288ZM14.6625 9.77024L12.9746 9.04686L12.7776 9.50644L14.4655 10.2298L14.6625 9.77024ZM10.0984 12.1858L14.6625 10.2298L14.4655 9.77024L9.90148 11.7263L10.0984 12.1858ZM5.33744 10.2298L9.90148 12.1858L10.0984 11.7263L5.5344 9.77024L5.33744 10.2298ZM7.02531 9.04686L5.33744 9.77024L5.5344 10.2298L7.22227 9.50644L7.02531 9.04686ZM7.22227 9.04686L5.95298 8.50288L5.75602 8.96245L7.02531 9.50644L7.22227 9.04686Z"
            fill="#222222" />
        <path fill-rule="evenodd" clip-rule="evenodd"
            d="M5.8545 12.8993L3.96967 13.7071C3.78582 13.7859 3.66663 13.9666 3.66663 14.1666C3.66663 14.3667 3.78582 14.5474 3.96967 14.6262L9.803 17.1262C9.92877 17.1801 10.0711 17.1801 10.1969 17.1262L16.0303 14.6262C16.2141 14.5474 16.3333 14.3667 16.3333 14.1666C16.3333 13.9666 16.2141 13.7859 16.0303 13.7071L14.1454 12.8993L12.8761 13.4433L14.564 14.1666L9.99996 16.1227L5.43592 14.1666L7.12379 13.4433L5.8545 12.8993Z"
            fill="#222222" />
        <path
            d="M3.96967 13.7071L3.87119 13.4773L3.87119 13.4773L3.96967 13.7071ZM5.8545 12.8993L5.95298 12.6695C5.89009 12.6426 5.81891 12.6426 5.75602 12.6695L5.8545 12.8993ZM3.96967 14.6262L3.87119 14.856L3.87119 14.856L3.96967 14.6262ZM9.803 17.1262L9.90148 16.8964L9.90148 16.8964L9.803 17.1262ZM10.1969 17.1262L10.0984 16.8964L10.0984 16.8964L10.1969 17.1262ZM16.0303 14.6262L16.1287 14.856L16.1287 14.856L16.0303 14.6262ZM16.0303 13.7071L16.1287 13.4773L16.1287 13.4773L16.0303 13.7071ZM14.1454 12.8993L14.2439 12.6695C14.181 12.6426 14.1098 12.6426 14.0469 12.6695L14.1454 12.8993ZM12.8761 13.4433L12.7776 13.2135C12.6857 13.2529 12.6261 13.3433 12.6261 13.4433C12.6261 13.5433 12.6857 13.6337 12.7776 13.6731L12.8761 13.4433ZM14.564 14.1666L14.6625 14.3964C14.7544 14.357 14.814 14.2667 14.814 14.1666C14.814 14.0666 14.7544 13.9763 14.6625 13.9369L14.564 14.1666ZM9.99996 16.1227L9.90148 16.3525C9.96437 16.3794 10.0356 16.3794 10.0984 16.3525L9.99996 16.1227ZM5.43592 14.1666L5.33744 13.9369C5.24552 13.9763 5.18592 14.0666 5.18592 14.1666C5.18592 14.2667 5.24552 14.357 5.33744 14.3964L5.43592 14.1666ZM7.12379 13.4433L7.22227 13.6731C7.31419 13.6337 7.37379 13.5433 7.37379 13.4433C7.37379 13.3433 7.31419 13.2529 7.22227 13.2135L7.12379 13.4433ZM4.06815 13.9369L5.95298 13.1291L5.75602 12.6695L3.87119 13.4773L4.06815 13.9369ZM3.91663 14.1666C3.91663 14.0666 3.97623 13.9763 4.06815 13.9369L3.87119 13.4773C3.59542 13.5955 3.41663 13.8666 3.41663 14.1666H3.91663ZM4.06815 14.3964C3.97623 14.357 3.91663 14.2667 3.91663 14.1666H3.41663C3.41663 14.4667 3.59542 14.7378 3.87119 14.856L4.06815 14.3964ZM9.90148 16.8964L4.06815 14.3964L3.87119 14.856L9.70452 17.356L9.90148 16.8964ZM10.0984 16.8964C10.0356 16.9234 9.96437 16.9234 9.90148 16.8964L9.70452 17.356C9.89318 17.4369 10.1067 17.4369 10.2954 17.356L10.0984 16.8964ZM15.9318 14.3964L10.0984 16.8964L10.2954 17.356L16.1287 14.856L15.9318 14.3964ZM16.0833 14.1666C16.0833 14.2667 16.0237 14.357 15.9318 14.3964L16.1287 14.856C16.4045 14.7378 16.5833 14.4667 16.5833 14.1666H16.0833ZM15.9318 13.9369C16.0237 13.9763 16.0833 14.0666 16.0833 14.1666H16.5833C16.5833 13.8666 16.4045 13.5955 16.1287 13.4773L15.9318 13.9369ZM14.0469 13.1291L15.9318 13.9369L16.1287 13.4773L14.2439 12.6695L14.0469 13.1291ZM14.0469 12.6695L12.7776 13.2135L12.9746 13.6731L14.2439 13.1291L14.0469 12.6695ZM14.6625 13.9369L12.9746 13.2135L12.7776 13.6731L14.4655 14.3964L14.6625 13.9369ZM10.0984 16.3525L14.6625 14.3964L14.4655 13.9369L9.90148 15.8929L10.0984 16.3525ZM5.33744 14.3964L9.90148 16.3525L10.0984 15.8929L5.5344 13.9369L5.33744 14.3964ZM7.02531 13.2135L5.33744 13.9369L5.5344 14.3964L7.22227 13.6731L7.02531 13.2135ZM7.22227 13.2135L5.95298 12.6695L5.75602 13.1291L7.02531 13.6731L7.22227 13.2135Z"
            fill="#222222" />

    </symbol>
    <symbol viewBox="0 0 20 20" id="safety" xmlns="http://www.w3.org/2000/svg">
        <path
            d="M3.33337 5.9588C3.33337 5.59563 3.53027 5.26101 3.84773 5.08464L9.5144 1.93649C9.81642 1.7687 10.1837 1.7687 10.4857 1.93649L16.1524 5.08464C16.4698 5.26101 16.6667 5.59563 16.6667 5.95879V8.74562C16.6667 12.3773 14.6978 15.7235 11.5231 17.4872L10.4857 18.0636C10.1837 18.2313 9.81642 18.2313 9.5144 18.0636L8.47695 17.4872C5.30229 15.7235 3.33337 12.3773 3.33337 8.74562V5.9588Z"
            stroke="#222222" stroke-width="1.5" />

    </symbol>
    <symbol viewBox="0 0 20 20" id="support" xmlns="http://www.w3.org/2000/svg">
        <path
            d="M2.66401 10.9922C1.96351 9.81202 1.71797 8.41669 1.97353 7.06827C2.22908 5.71985 2.96813 4.51112 4.05189 3.66909C5.13564 2.82706 6.48952 2.40967 7.85927 2.4953C9.22902 2.58092 10.5204 3.16369 11.4908 4.13413C12.4613 5.10458 13.044 6.39594 13.1297 7.76569C13.2153 9.13543 12.7979 10.4893 11.9559 11.5731C11.1138 12.6568 9.9051 13.3959 8.55669 13.6514C7.20827 13.907 5.81294 13.6615 4.63276 12.961L2.68745 13.5156C2.6073 13.5382 2.52259 13.539 2.44204 13.5179C2.36148 13.4968 2.28799 13.4547 2.22912 13.3958C2.17025 13.337 2.12812 13.2635 2.10706 13.1829C2.08601 13.1024 2.08679 13.0177 2.10932 12.9375L2.66401 10.9922Z"
            stroke="#222222" stroke-width="1.5" stroke-linecap="round" stroke-linejoin="round" />
        <path
            d="M7.19531 13.7422C7.47066 14.5272 7.91694 15.2413 8.50192 15.8328C9.0869 16.4244 9.79597 16.8786 10.5779 17.1626C11.3598 17.4467 12.1951 17.5535 13.0233 17.4754C13.8516 17.3973 14.6522 17.1362 15.3672 16.7109V16.7109L17.3125 17.2656C17.3927 17.2882 17.4774 17.2889 17.5579 17.2679C17.6385 17.2468 17.712 17.2047 17.7708 17.1458C17.8297 17.087 17.8718 17.0135 17.8929 16.9329C17.9139 16.8524 17.9132 16.7677 17.8906 16.6875L17.3359 14.7422C17.8311 13.9109 18.1032 12.9659 18.1259 11.9986C18.1485 11.0313 17.9208 10.0745 17.465 9.22105C17.0092 8.36758 16.3407 7.64631 15.5242 7.12715C14.7077 6.60799 13.7709 6.30854 12.8047 6.25781"
            stroke="#222222" stroke-width="1.5" stroke-linecap="round" stroke-linejoin="round" />
    </symbol>
    <symbol viewBox="0 0 20 20" id="all" xmlns="http://www.w3.org/2000/svg">
        <path d="M10 11.875C11.0355 11.875 11.875 11.0355 11.875 10C11.875 8.96447 11.0355 8.125 10 8.125C8.96447 8.125 8.125 8.96447 8.125 10C8.125 11.0355 8.96447 11.875 10 11.875Z" stroke="#00402C" stroke-width="1.5" stroke-miterlimit="10"/>
        <path d="M3.75 11.875C4.78553 11.875 5.625 11.0355 5.625 10C5.625 8.96447 4.78553 8.125 3.75 8.125C2.71447 8.125 1.875 8.96447 1.875 10C1.875 11.0355 2.71447 11.875 3.75 11.875Z" stroke="#00402C" stroke-width="1.5" stroke-miterlimit="10"/>
        <path d="M16.25 11.875C17.2855 11.875 18.125 11.0355 18.125 10C18.125 8.96447 17.2855 8.125 16.25 8.125C15.2145 8.125 14.375 8.96447 14.375 10C14.375 11.0355 15.2145 11.875 16.25 11.875Z" stroke="#00402C" stroke-width="1.5" stroke-miterlimit="10"/>
    </symbol>

    <symbol viewBox="0 0 24 24" id="shops_receipts" xmlns="http://www.w3.org/2000/svg">
        <path d="M19 12.5V19.4656C19 20.2959 18.0466 20.7645 17.3892 20.2574L16.0584 19.2307C15.7236 18.9725 15.2625 18.9527 14.9068 19.1813L13.0815 20.3547C12.4227 20.7783 11.5773 20.7783 10.9185 20.3547L9.0932 19.1813C8.73751 18.9527 8.27644 18.9725 7.94164 19.2307L6.6108 20.2574C5.95338 20.7645 5 20.2959 5 19.4656V3.5H12" stroke="#222222" stroke-width="1.5"/>
        <path d="M9 9.5H12" stroke="#222222" stroke-width="1.5" stroke-linecap="round" stroke-linejoin="round"/>
        <path d="M3.6001 3.5H12.0001" stroke="#222222" stroke-width="1.5" stroke-linecap="round" stroke-linejoin="round"/>
        <path d="M18.6001 1.19995L18.6001 7.19995" stroke="#222222" stroke-width="1.5" stroke-linecap="round"/>
        <path d="M21.6001 4.19995L15.6001 4.19995" stroke="#222222" stroke-width="1.5" stroke-linecap="round"/>
        <path d="M19 18.9884L19 10.5884" stroke="#222222" stroke-width="1.5" stroke-linecap="round" stroke-linejoin="round"/>
        <path d="M9 13.5H12" stroke="#222222" stroke-width="1.5" stroke-linecap="round" stroke-linejoin="round"/>
        <path d="M15 9.5H15.5" stroke="#222222" stroke-width="1.5" stroke-linecap="round" stroke-linejoin="round"/>
        <path d="M15 13.5H15.5" stroke="#222222" stroke-width="1.5" stroke-linecap="round" stroke-linejoin="round"/>
    </symbol>
    <symbol viewBox="0 0 24 24" id="shops_settings" xmlns="http://www.w3.org/2000/svg">
        <path d="M3.08168 13.9445C2.55298 12.9941 2.28862 12.5188 2.28862 12C2.28862 11.4812 2.55298 11.0059 3.08169 10.0555L4.43094 7.63L5.85685 5.24876C6.4156 4.31567 6.69498 3.84912 7.14431 3.5897C7.59364 3.33028 8.13737 3.3216 9.22483 3.30426L12 3.26L14.7752 3.30426C15.8626 3.3216 16.4064 3.33028 16.8557 3.5897C17.305 3.84912 17.5844 4.31567 18.1431 5.24876L19.5691 7.63L20.9183 10.0555C21.447 11.0059 21.7114 11.4812 21.7114 12C21.7114 12.5188 21.447 12.9941 20.9183 13.9445L19.5691 16.37L18.1431 18.7512C17.5844 19.6843 17.305 20.1509 16.8557 20.4103C16.4064 20.6697 15.8626 20.6784 14.7752 20.6957L12 20.74L9.22483 20.6957C8.13737 20.6784 7.59364 20.6697 7.14431 20.4103C6.69498 20.1509 6.4156 19.6843 5.85685 18.7512L4.43094 16.37L3.08168 13.9445Z" stroke="#222222" stroke-width="1.5"/>
        <circle cx="12" cy="12" r="3" stroke="#222222" stroke-width="1.5"/>
    </symbol>
    <symbol viewBox="0 0 24 24" id="shops_commission" xmlns="http://www.w3.org/2000/svg">
        <rect x="5" y="4" width="14" height="17" rx="2" stroke="#222222" stroke-width="1.5"/>
        <path d="M9 9H15" stroke="#222222" stroke-width="1.5" stroke-linecap="round"/>
        <path d="M9 13H15" stroke="#222222" stroke-width="1.5" stroke-linecap="round"/>
        <path d="M9 17H13" stroke="#222222" stroke-width="1.5" stroke-linecap="round"/>
    </symbol>
    <symbol viewBox="0 0 24 24" id="shops_delete" xmlns="http://www.w3.org/2000/svg">
        <path d="M5.05063 8.73418C4.20573 7.60763 5.00954 6 6.41772 6H17.5823C18.9905 6 19.7943 7.60763 18.9494 8.73418V8.73418C18.3331 9.55584 18 10.5552 18 11.5823V18C18 20.2091 16.2091 22 14 22H10C7.79086 22 6 20.2091 6 18V11.5823C6 10.5552 5.66688 9.55584 5.05063 8.73418V8.73418Z" stroke="#222222" stroke-width="1.5"/>
        <path d="M14 17L14 11" stroke="#222222" stroke-width="1.5" stroke-linecap="round" stroke-linejoin="round"/>
        <path d="M10 17L10 11" stroke="#222222" stroke-width="1.5" stroke-linecap="round" stroke-linejoin="round"/>
        <path d="M16 6L15.4558 4.36754C15.1836 3.55086 14.4193 3 13.5585 3H10.4415C9.58066 3 8.81638 3.55086 8.54415 4.36754L8 6" stroke="#222222" stroke-width="1.5" stroke-linecap="round"/>
    </symbol>
    <symbol viewBox="0 0 24 24" id="shops_upload" xmlns="http://www.w3.org/2000/svg">
        <path d="M9 8L7 8C4.79086 8 3 9.79086 3 12L3 17C3 19.2091 4.79086 21 7 21L19 21C21.2091 21 23 19.2091 23 17L23 12C23 9.79086 21.2091 8 19 8L17 8" stroke="#222222" stroke-width="1.5" stroke-linecap="round"/>
        <path d="M10 13L12.2929 15.2929C12.6834 15.6834 13.3166 15.6834 13.7071 15.2929L16 13" stroke="#222222" stroke-width="1.5" stroke-linecap="round"/>
        <path d="M13 15L13 3" stroke="#222222" stroke-width="1.5" stroke-linecap="round"/>
    </symbol>
     <symbol viewBox="0 0 24 24" id="shops_recover" xmlns="http://www.w3.org/2000/svg">
        <path d="M12 5L11.4697 4.46967L12 3.93934L12.5303 4.46967L12 5ZM12.75 14C12.75 14.4142 12.4142 14.75 12 14.75C11.5858 14.75 11.25 14.4142 11.25 14L12.75 14ZM6.46967 9.46967L11.4697 4.46967L12.5303 5.53033L7.53033 10.5303L6.46967 9.46967ZM12.5303 4.46967L17.5303 9.46967L16.4697 10.5303L11.4697 5.53033L12.5303 4.46967ZM12.75 5L12.75 14L11.25 14L11.25 5L12.75 5Z" fill="#222222"/>
        <path d="M5 16L5 17C5 18.1046 5.89543 19 7 19L17 19C18.1046 19 19 18.1046 19 17V16" stroke="#222222" stroke-width="1.5"/>
    </symbol>
   <symbol viewBox="0 0 16 16" id="search" xmlns="http://www.w3.org/2000/svg">
        <ellipse cx="7.33332" cy="7.33333" rx="5.33333" ry="5.33333" stroke="#222222" stroke-width="1.5" stroke-linecap="round" stroke-linejoin="round"/>
        <path d="M11 11.3053L14.3333 14.6387" stroke="#222222" stroke-width="1.5" stroke-linecap="round" stroke-linejoin="round"/>
    </symbol>

</svg>