<svg width="24" height="24" viewBox="0 0 24 24" fill="none" xmlns="http://www.w3.org/2000/svg">
<path fill-rule="evenodd" clip-rule="evenodd" d="M2.01499 11.5682L5.66169 4.08349C5.67363 4.05829 5.69278 4.03699 5.71682 4.02218C5.74087 4.00736 5.76879 3.99967 5.79722 4.00001H18.2033C18.2316 3.99994 18.2593 4.00783 18.2831 4.02273C18.307 4.03764 18.3259 4.05893 18.3377 4.08407L21.9844 11.5687C21.9982 11.5966 22.0026 11.628 21.9969 11.6585C21.9912 11.6889 21.9756 11.7168 21.9525 11.738L12.1037 20.9591C12.0757 20.9853 12.0384 21 11.9997 21C11.9609 21 11.9237 20.9853 11.8957 20.9591L2.04681 11.7374C2.02372 11.7162 2.00817 11.6884 2.00244 11.6579C1.99672 11.6275 2.00112 11.596 2.01499 11.5682ZM12.0141 12.3633C12.829 12.3633 13.1944 12.342 13.2651 12.3368L13.2627 12.3362C15.7628 12.228 17.6277 11.8019 17.6277 11.293C17.6277 10.784 15.7622 10.3579 13.2627 10.2491V11.913C13.1926 11.9194 12.8031 11.951 12.0253 11.951C11.3772 11.951 10.9082 11.924 10.7444 11.9125V10.248C8.23959 10.3574 6.36998 10.7828 6.36998 11.293C6.36998 11.8031 8.23959 12.2291 10.7444 12.3368C10.9058 12.3443 11.366 12.3633 12.0141 12.3633ZM13.2651 10.0764V10.077L13.2645 10.0764C13.2647 10.0764 13.2649 10.0764 13.2651 10.0764ZM13.2651 8.58753V10.0764C16.0948 10.2043 18.221 10.7524 18.221 11.4093C18.221 12.0662 16.0928 12.6143 13.2645 12.7415V17.5162H10.7438V12.7433C7.90903 12.6154 5.77722 12.0673 5.77722 11.4098C5.77722 10.7523 7.90903 10.2036 10.7438 10.0764V8.58753H7.25617V6.31622H16.7533V8.58753H13.2651Z" fill="#00CA8B"/>
</svg>
