<svg width="20" height="20" viewBox="0 0 20 20" fill="none" xmlns="http://www.w3.org/2000/svg">
<path fill-rule="evenodd" clip-rule="evenodd" d="M4.1526 9.16681C4.5799 9.1596 4.9375 9.47531 4.99262 9.88889L4.99986 9.98597L5.00289 10.1724C5.09369 12.8602 7.30268 15 9.99998 15C10.1558 15 10.3105 14.9929 10.4639 14.9788L10.2441 14.7559C9.91862 14.4305 9.91862 13.9029 10.2441 13.5774C10.5695 13.252 11.0971 13.252 11.4226 13.5774L13.0892 15.2441C13.4147 15.5695 13.4147 16.0972 13.0892 16.4226L11.4226 18.0893C11.0971 18.4147 10.5695 18.4147 10.2441 18.0893C9.91862 17.7638 9.91862 17.2362 10.2441 16.9108L10.5093 16.6475C10.3405 16.6603 10.1706 16.6667 9.99998 16.6667C6.4739 16.6667 3.57403 13.9246 3.3472 10.4255L3.33682 10.2146L3.33343 10.0141C3.32567 9.5539 3.69242 9.17457 4.1526 9.16681ZM9.7559 1.91076C10.0563 2.21117 10.0794 2.68386 9.82523 3.01077L9.7559 3.08928L9.49095 3.35254C9.65965 3.33978 9.82942 3.33335 9.99998 3.33335C13.6819 3.33335 16.6666 6.31812 16.6666 10C16.6666 10.4603 16.2936 10.8334 15.8333 10.8334C15.3731 10.8334 15 10.4603 15 10C15 7.2386 12.7614 5.00002 9.99998 5.00002C9.84409 5.00002 9.68925 5.00713 9.53577 5.02123L9.7559 5.2441C10.0813 5.56954 10.0813 6.09717 9.7559 6.42261C9.4555 6.72301 8.98281 6.74612 8.6559 6.49193L8.57739 6.42261L6.91073 4.75594C6.61032 4.45554 6.58722 3.98285 6.8414 3.65594L6.91073 3.57743L8.57739 1.91076C8.90283 1.58533 9.43047 1.58533 9.7559 1.91076Z" fill="#C4C4C4"/>
</svg>
